<svg xmlns="http://www.w3.org/2000/svg" width="560.598" height="608.431"><defs><clipPath id="a"><path d="M0 792h612V0H0v792z"/></clipPath><clipPath id="b"><path d="M0 792h612V0H0v792z"/></clipPath><clipPath id="c"><path d="M0 792h612V0H0v792z"/></clipPath></defs><g clip-path="url(#a)" transform="matrix(1.25 0 0 -1.25 -97.5 806.528)"><path d="M197.667 529.277S96.667 540.667 80 468c-16.666-72.667 76.334-74.39 76.334-74.39s2.333-20.944 32-20.777c0 0-13 2.834-14.667 23.167l16.05 2.57s-3.05 8.445 7.95 12.27c11 3.826 0 0 0 0s4.22 2.144 8.276-8.682c4.057-10.825 0 0 0 0l18.312 4.98s-2.707 14.558 9.186 11.876c11.895-2.68 0 0 0 0s6.21-1.014 6.45-5.682c.24-4.668 0 0 0 0l8.445 7.16-50.667 108.785zM395 577.333s47.667 29.667 98.667-2.667c51-32.333 45-132.666-35.334-132.666 0 0-11.333-36.448-57.333-32.724 0 0 28.666 11.057 28.333 35.057 0 0-18 .334-34.333 11.667v121.333z" fill="#999"/></g><g clip-path="url(#b)" transform="matrix(1.25 0 0 -1.25 -97.5 806.528)" fill="#fff"><path d="M109.218 492.28c.05.28.067.562.055.844-.025 1.25-1.9 1.557-2.21.3-1.55-6.32-2.577-12.1-5.4-18.145-3.707-7.94-8.934-15.478-15.694-21.098l1.92-.795c-.15 3.374 1.243 6.063 3.473 8.497 3.346 3.652 7.335 2.425 11.387 1.242 4.877-1.424 10.397 1.196 14.38 3.718 1.22.773.093 2.722-1.137 1.942-4.235-2.682-8.922-4.578-13.967-3.104-3.206.936-5.338 1.527-8.55.337-4.893-1.814-8.057-7.628-7.836-12.633.045-1.032 1.168-1.42 1.92-.795 6.968 5.792 12.073 13.48 16.045 21.55 3.01 6.113 4.04 12.217 5.628 18.682l-2.21.3a3.91 3.91 0 0 0-.055-.844c-.127-1.445 2.124-1.433 2.25 0"/><path d="M116.73 467.96c2.5 2.123 5.258 7.853 3.29 10.984-.948 1.506-3.018 1.248-4.406.66-1.987-.842-2.665-4.106-2.91-5.932-.594-4.424-.027-10.2 5.76-9.832 5.255.336 10.118 5.99 12.87 9.994.824 1.2-1.127 2.323-1.943 1.136-2.46-3.58-14.017-14.817-14.63-4.703-.104 1.7.14 3.408.587 5.044.274 1.005 2.798 4.27 3.032 1.55.207-2.402-1.435-5.774-3.24-7.307-1.11-.94.49-2.524 1.59-1.59"/><path d="M133.996 492.908v1.88c0 1.453-2.236 1.452-2.25 0-.107-10.958-1.827-21.76-3.137-32.618-.176-1.44 2.076-1.422 2.25 0 1.31 10.857 3.03 21.66 3.135 32.62h-2.25v-1.882c0-1.45 2.25-1.45 2.25 0"/><path d="M125.996 477.04c4.975 1.113 9.695 3.495 14.428 5.334 1.337.52.756 2.695-.6 2.17-4.73-1.84-9.452-4.22-14.426-5.333-1.416-.315-.815-2.484.598-2.17m17.082 25.606c.476-2.1.328-4.178-.827-6.033-.77-1.236 1.18-2.364 1.944-1.136 1.473 2.366 1.66 5.093 1.055 7.768-.32 1.413-2.49.813-2.17-.6m8.15-30.605c4.537 4.562 9.39 9.71 9.74 16.477.032.627-.537 1.105-1.125 1.125-5.65.193-5.15-6.124-4.122-10.008.638-2.413 1.684-4.55 3.396-6.364.445-.473 2.994-2.725 1.096-3.497-.915-.373-2.272-.182-3.197-.054-1.616.22-3.214.76-4.718 1.376-1.344.548-1.923-1.63-.598-2.17 2.42-.988 14.077-3.482 11.458 2.858-1.116 2.7-3.804 4.258-4.86 7.143-.856 2.34-2.626 8.606 1.542 8.464l-1.125 1.126c-.316-6.1-5.014-10.796-9.08-14.887-1.025-1.03.566-2.62 1.59-1.59m-46.587-32.583c-5.344-.044-9.813-9.658-8.1-14.144 1.002-2.627 4.17-3.066 6.458-1.966 3.49 1.675 6.174 4.903 8.13 8.163 1.585 2.645 2.697 5.834.84 8.582-1.465 2.163-3.84 2.438-5.97 1.124-2.754-1.695-4.614-5.02-6.147-7.75-1.363-2.427-2.667-5.03-3.507-7.694-.438-1.388 1.735-1.977 2.17-.6 1.172 3.72 3.193 7.35 5.372 10.56 1.042 1.536 2.457 3.473 4.312 4.052 2.627.82 2.563-3.378 2.127-4.736-1.03-3.207-6.85-12.04-11.104-9.677-3.41 1.896 2.303 11.81 5.42 11.838 1.45.012 1.452 2.262 0 2.25"/><path d="M114.198 455.73c-.58.72-.508-1.248-.657-2.04-.347-1.862-.734-3.718-1.1-5.578-.79-4.01-1.51-8.035-1.95-12.1-.374-3.43-.45-12.678 5.386-8.373 1.154.85.033 2.803-1.136 1.94-2.773-2.044-2.26 2.282-2.184 4.15.16 3.797.886 7.58 1.577 11.306.447 2.412 3.44 10.064 1.656 12.283-.91 1.13-2.493-.473-1.593-1.59"/><path d="M125.956 445.69c-6.19 1.152-9.72-4.684-10.544-10.048-.644-4.196.798-11 6.456-8.3 3.428 1.638 5.684 5.437 7.102 8.778 1.163 2.74 2.6 8.566-1.446 9.884-7.68 2.504-11.1-9.498-12.048-14.9-.25-1.418 1.92-2.025 2.17-.598.742 4.23 2.458 11.882 7.06 13.485 5.02 1.75 2.664-6.035 1.78-7.96-1.2-2.61-2.947-5.03-5.42-6.56-3.91-2.42-3.735 4.228-3.353 6.365.67 3.74 3.14 8.525 7.645 7.687 1.418-.263 2.024 1.906.598 2.17m24.61 2.364c-.09-5.017-2.786-9.633-2.885-14.626-.12-6.187 7.72-.603 9.597.795 1.15.856.03 2.81-1.135 1.942-1.596-1.19-3.93-3.354-6.058-3.444-.433-.018.14 2.953.276 3.553.88 3.898 2.384 7.742 2.457 11.78.026 1.452-2.224 1.45-2.25 0m-.072 8.5c-.947-.527-1.46-1.47-1.5-2.54-.05-1.453 2.2-1.448 2.25 0 .01.24.09.432.386.597 1.27.704.136 2.648-1.134 1.942"/><path d="M161.583 463.096c-2.753-13.396-5.604-26.773-8.468-40.146-.303-1.415 1.866-2.017 2.17-.598 2.863 13.373 5.715 26.75 8.468 40.146.29 1.416-1.878 2.02-2.17.598"/><path d="M156.335 450.85c4.36 2.157 8.814 4.113 13.173 6.27 1.3.645.16 2.585-1.135 1.944-4.36-2.158-8.814-4.114-13.174-6.273-1.3-.64-.16-2.582 1.134-1.94m26.55 18.863c.067.428.17.846.315 1.254l-2.21.3c-1.366-12.792-4.885-25.163-7.803-37.654-.33-1.41 1.84-2.01 2.17-.597 2.965 12.692 6.495 25.254 7.88 38.25.14 1.308-1.85 1.464-2.21.3a7.136 7.136 0 0 1-.313-1.255c-.298-1.413 1.87-2.015 2.17-.596m-10.624-45.207c.086.246-.138-.205-.016-.044l-.403-.404c.005 0 .01 0 .01.003-.452.06-.906.117-1.36.176l.007-.007-.29.496c-.087.297-.026.323-.035.17-.013-.22.05.3.004.03a7.386 7.386 0 0 0-.128-.57c-.137-.537-.203-.765-.468-1.183-.328-.518-.11-1.237.404-1.54.563-.33 1.186-.095 1.54.405.654.927.967 2.308.312 3.33-.78 1.22-2.727.092-1.942-1.135.023-.037.042-.077.06-.116-.213.45.026-.285-.018.058.048-.377-.08-.61-.356-1.002l1.943-1.135c.368.58.587 1.264.747 1.927.135.556.352 1.433-.188 1.86-.422.334-.87.43-1.364.177-.357-.182-.503-.55-.625-.9-.2-.58.225-1.23.787-1.386.62-.17 1.183.208 1.384.787m20.068 45.208a7.1 7.1 0 0 0 .313 1.254l-2.21.3c-1.364-12.792-4.882-25.163-7.8-37.654-.33-1.41 1.84-2.01 2.17-.597 2.964 12.692 6.494 25.254 7.88 38.25.14 1.307-1.852 1.464-2.21.3a7.133 7.133 0 0 1-.313-1.255c-.297-1.413 1.872-2.016 2.17-.596m-9.73-46.102c.085.245-.14-.206-.017-.045l-.403-.404.01.006-1.363.173c0-.002.003-.003.006-.005l-.288.495c-.09.298-.028.324-.037.17-.013-.22.05.3.004.032a7.516 7.516 0 0 0-.128-.573c-.137-.536-.203-.764-.468-1.18-.33-.52-.11-1.24.403-1.54.565-.33 1.188-.097 1.54.403.655.927.968 2.31.313 3.332-.78 1.216-2.728.09-1.943-1.137a.992.992 0 0 0 .06-.117c-.213.45.026-.286-.018.057.048-.376-.08-.61-.355-1 .647-.38 1.295-.757 1.942-1.136.366.58.586 1.263.746 1.926.134.558.35 1.434-.19 1.863-.42.333-.868.428-1.362.176-.357-.184-.503-.55-.625-.903-.2-.58.223-1.23.785-1.384.62-.17 1.182.207 1.383.786m20.074 45.207c.067.428.17.846.314 1.255l-2.21.3c-1.364-12.792-4.883-25.163-7.802-37.654-.33-1.41 1.84-2.01 2.17-.598 2.966 12.692 6.496 25.254 7.882 38.25.14 1.308-1.85 1.464-2.21.3a7.15 7.15 0 0 1-.314-1.254c-.3-1.416 1.87-2.018 2.17-.6m-10.624-45.204c.085.245-.14-.206-.017-.045l-.4-.404a.11.11 0 0 0 .01.006l-1.363.173.007-.005-.29.495c-.087.298-.025.324-.035.17-.015-.22.047.3.002.032a7.516 7.516 0 0 0-.127-.573c-.137-.536-.204-.764-.47-1.18-.328-.52-.11-1.24.405-1.54.564-.33 1.186-.096 1.54.403.654.927.97 2.31.313 3.332-.778 1.216-2.726.09-1.94-1.137.022-.037.04-.077.06-.117-.214.45.025-.286-.02.057.05-.376-.08-.61-.356-1l1.943-1.136c.367.58.587 1.263.747 1.926.136.558.352 1.435-.188 1.863-.42.333-.868.428-1.364.176-.357-.183-.502-.55-.625-.903-.2-.58.226-1.23.787-1.384.62-.17 1.182.207 1.384.786m258.583 144.907c1.334 1.39 4.512 5.572 2.086 7.513-3.304 2.643-8.12-.93-10.834-2.943-4.952-3.673-8.962-8.616-12.583-13.556-3.11-4.24-6.435-9.224-7.596-14.445-1.52-6.837 6.78-5.42 10.624-4.223 7.364 2.295 15.02 6.183 21.24 10.752 1.158.85.038 2.803-1.133 1.943-3.547-2.605-7.552-4.665-11.474-6.632-4.522-2.267-10.02-5.134-15.228-4.99-5.808.164 4.256 14.686 5.51 16.462 2.67 3.776 5.747 7.26 9.094 10.447a33.293 33.293 0 0 0 5.516 4.23c1.06.622 2.18 1.122 3.356 1.5.516-.744 1.03-1.488 1.547-2.23a7.735 7.735 0 0 0-1.72-2.234c-1.005-1.046.585-2.64 1.592-1.59"/><path d="M430.848 540.77c-.89-2.163-2.202-4.106-3.335-6.143-.527-.95.56-2.172 1.54-1.54 1.402.906 2.806 1.82 4.377 2.41 1.223.46 2.62.293 2.37-1.4-.13-.883-1.035-1.612-1.687-2.115-2.76-2.13-6.817-3.536-10.268-3.974-1.42-.18-1.436-2.432 0-2.25 4.444.565 11.872 2.606 13.9 7.098.908 2.015-.138 4.64-2.354 5.11-2.564.548-5.467-1.64-7.472-2.936l1.54-1.54c1.232 2.217 2.594 4.328 3.56 6.68.553 1.343-1.625 1.92-2.17.6m34.91 14.205a19.342 19.342 0 0 1 1.8 1.995c.383.46.474 1.14 0 1.59-4.054 3.84-9.344-.806-12.275-3.832-2.417-2.494-7.84-8.433-5.366-12.216 4.28-6.54 16.884 14.826 18.457 17.616-.647.38-1.296.758-1.943 1.136-1.98-3.717-4.7-8.935-3.24-13.256 1.59-4.69 8.19-1.248 10.787.168 1.274.695.138 2.638-1.135 1.943-2.56-1.398-7.9-4.35-7.76.743.087 3.207 1.824 6.51 3.294 9.264.682 1.278-1.228 2.403-1.943 1.136-3.298-5.85-7.198-12.186-12.32-16.595-1.268-1.092-3-1.422-2.38.753.526 1.846 1.823 3.56 2.93 5.09 1.81 2.497 7.834 9.75 11.306 6.46v1.59a19.003 19.003 0 0 0-1.8-1.995c-1.005-1.047.584-2.64 1.59-1.59m-50.075-59.885c4.027 5.098 6.036 12.074 11.756 15.63-.562.324-1.126.647-1.69.97-.545-5.21-1.635-10.182-3.916-14.92l2.057-.867c1.305 6.653 5.176 13.505 10.24 18.016l-1.92.793c.308-4.928-.825-9.973-2.795-14.483l2.057-.866c1.357 6.658 5.32 13.352 10.918 17.3l-1.54.405c2.01-4.19-4.165-11.148-.207-14.477 1.104-.927 2.704.656 1.593 1.59-1.61 1.354.753 6.812 1.098 8.43.42 1.964.33 3.785-.538 5.59-.25.52-1.067.737-1.54.404-6.082-4.29-10.47-11.377-11.95-18.646-.24-1.175 1.518-2.097 2.056-.866 2.128 4.873 3.435 10.277 3.1 15.62-.06.997-1.168 1.464-1.92.794-5.342-4.76-9.44-11.987-10.818-19.01-.23-1.18 1.472-2.08 2.057-.866 2.454 5.1 3.637 10.455 4.22 16.057.09.86-1.016 1.39-1.69.97-6.04-3.75-7.986-10.63-12.213-15.98-.888-1.125.693-2.73 1.592-1.59m41.532 22.007c-3.71 6.837-13.56-7.788-13.445-11.906.113-4.13 3.993-2.79 6.512-1.5 5.033 2.575 7.103 10.1 9.2 14.847-.686.29-1.37.58-2.057.867-1.57-4.085-3.053-8.155-4.078-12.415-.15-.62.19-1.188.786-1.385 6.91-2.285 13.4 11.57 11.09 16.908l-.973-1.693c2.69-.19 5.192.867 7.777 1.475-.422.552-.846 1.102-1.27 1.653-2.867-5.464-4.687-19.384 5.266-12.59 1.19.813.067 2.764-1.134 1.943-3.148-2.146-4.747-1.946-4.432 2.037.2 2.52 1.073 5.245 2.244 7.476a1.136 1.136 0 0 1-1.27 1.653c-2.365-.557-4.724-1.57-7.18-1.396-.943.066-1.278-.985-.972-1.694 1.612-3.722-4.114-15.068-8.546-13.602.26-.462.524-.923.786-1.385 1.025 4.26 2.51 8.33 4.078 12.414.456 1.188-1.543 2.03-2.057.867-2.21-5.006-4.134-11.86-9.342-14.526-3.97-2.03-.203 5.017.258 5.783.48.795 5.616 7.245 6.816 5.033.69-1.274 2.632-.138 1.94 1.137"/><path d="M485.192 521.183c1.414 1.812 2.515 3.4 1.403 5.616-.75 1.49-3.46 1.027-4.466.262-3.73-2.83-7.194-8.295-6.116-13.175 1.137-5.147 8.12-1.98 10.43-.237 4.534 3.424 7.928 8.658 10.887 13.41 3.3 5.302 7.19 12.476 5.964 18.96-.916 4.84-3.614 5.205-6.458 1.424-3.827-5.086-6.495-11.54-8.724-17.45-1.98-5.246-3.864-11.75-1.442-17.14.242-.536 1.072-.722 1.54-.404 4.08 2.758 5.64 7.474 9.05 10.872l-1.922.796c-.31-5.024 1.125-11.613 7.652-8.113 2.722 1.46 5.18 3.46 6.69 6.195.78 1.412 1.468 5.403-.498 6.375-3.65 1.804-9.776-4.383-7.263-7.982 2.74-3.93 9.392-4.112 13.516-2.665 1.36.477.776 2.65-.598 2.17-2.63-.923-13.377-1.29-10.547 3.945 1.505 2.784 4.24.733 3.037-1.446-.745-1.348-2.295-2.57-3.48-3.47-1.27-.96-2.74-1.64-4.334-1.798-2.676-.266-2.015 5.376-1.928 6.787.063 1.004-1.257 1.456-1.92.795-3.223-3.213-4.764-7.932-8.592-10.52.512-.135 1.025-.27 1.54-.404-3.013 6.698 1.73 16.188 4.55 22.206a89.038 89.038 0 0 0 3.84 7.237c.855 1.46 1.674 2.867 2.812 4.13 1.226 1.364 1.09-6.827 1.014-7.206-1.455-7.216-6.325-14.158-10.798-19.862-2.046-2.61-4.46-5.028-7.378-6.633-3.562-1.96-4.762 2.14-3.894 4.807.376 1.015.83 1.993 1.36 2.934l.56.933c.6 1.653 1.57 1.733 2.917.24-.88-1.13.7-2.734 1.592-1.59m-31.232-26.81c-1.51-9.668-4.207-19.08-6.093-28.67-.278-1.42 1.89-2.023 2.17-.6 1.885 9.593 4.583 19.003 6.093 28.67.222 1.42-1.946 2.03-2.17.6m-8.32-37.933c.073-.398.444-.792.845-.88.124-.026.25-.05.378-.044.21.01-.3.085-.164.032l-.496.29-.286.676c.033.197.034.223.002.078-.044-.187-.12-.37-.188-.548-.22-.574.237-1.234.786-1.385.634-.176 1.165.212 1.384.784.204.535.424 1.177.1 1.716-.177.297-.41.44-.728.567-.107.042-.235.043-.352.044-.537.003.855-.54.89-.73-.11.604-.832.938-1.384.786-.63-.173-.897-.78-.786-1.384m18.177 40.355c-1.51-9.668-4.207-19.08-6.093-28.67-.278-1.418 1.89-2.022 2.17-.6 1.885 9.593 4.583 19.004 6.093 28.67.222 1.42-1.946 2.03-2.17.6m-8.32-37.93c.073-.4.443-.794.844-.88a1.41 1.41 0 0 1 .376-.046c.208.01-.3.087-.166.033l-.495.29-.285.676c.033.197.034.222.002.08-.044-.19-.12-.37-.188-.55-.22-.575.237-1.234.786-1.385.634-.175 1.165.213 1.384.786.204.536.424 1.177.1 1.717-.177.296-.41.44-.728.565a.985.985 0 0 1-.352.045c-.537.002.855-.542.89-.73-.11.603-.832.937-1.384.785-.63-.174-.897-.782-.786-1.384m18.176 40.352c-1.508-9.666-4.206-19.077-6.092-28.67-.278-1.417 1.89-2.02 2.17-.598 1.885 9.593 4.583 19.003 6.093 28.67.224 1.42-1.944 2.03-2.17.6m-8.32-37.932c.074-.4.445-.793.846-.88.124-.027.25-.052.378-.045.208.01-.3.085-.166.032l-.496.29-.285.676c.033.197.034.223.002.078-.046-.185-.12-.367-.19-.546-.22-.574.237-1.234.786-1.385.634-.175 1.165.213 1.384.785.205.535.425 1.177.1 1.716-.176.297-.41.44-.727.567-.107.042-.235.043-.352.044-.535 0 .857-.54.89-.73-.11.603-.83.937-1.382.785-.63-.173-.897-.78-.786-1.384"/></g><g clip-path="url(#c)" transform="matrix(1.25 0 0 -1.25 -97.5 806.528)"><path d="M270.334 482.666s75 31 84 73.667c0 0-7.667-48.667-19.333-60 0 0 37 15 33.334 72.666 0 0 32-35.335 19-94.335l5 6s-2-11.667-2.333-16.333c-.333-4.667 2-22-2.666-29.667C382.666 427 378 423.333 378 423.333s1-5.334 0-8.667c0 0 25.333 25 28 50.667 0 0 .666-11 3-17 0 0 3.333 52.333 4 70.666.666 18.332 7.666 121.665-107 124.665 0 0-63 13.667-98.334-40-35.333-53.667-9.333-155 45.667-190.333 0 0-2.334 15-3.667 20.666-1.333 5.666 1.667-10 15.334-18l11.666-2.667s-9.333 47-6.333 69.334" fill="#4d4d4d"/><path d="M294.667 512.167s31.83 4.838 41.415-15.33c0 0-7.916 11.997-40.582 12.33-32.666.333-.833 3-.833 3m94.88 4.797S371.832 523 364.5 504c0 0 9.833 13.666 23.5 9.833s1.675 2.128 1.546 3.13M334.5 470.166s-5.166 26-39.333 22.833c0 0-4.667 2.166-7 5.666 0 0 1.5-5 3.833-6.5 0 0-6.167-.667-10.167.333 0 0 5.167-3.167 10.334-3.334 0 0-1.667-1-3.334-3.833 0 0 25.833 16 45.667-15.168" fill="#4d4d4d"/><path d="M320.667 478.833c0-5.983-4.85-10.833-10.833-10.833-5.983 0-10.833 4.85-10.833 10.833 0 5.983 4.85 10.833 10.835 10.833 5.982 0 10.833-4.85 10.833-10.833" fill="#4d4d4d"/><path d="M320.667 480.5a5.167 5.167 0 1 0-10.333 0 5.167 5.167 0 0 0 10.333 0" fill="#fff"/><path d="M366 472s4.334 17.332 19.167 17.666c0 0 3.096 1.01 4.167 5.5 0 0 .167-6.333-3-7.5 0 0 3.666-.167 6.666 2 0 0-3-6-7.333-5.25 0 0 .166-2.583 5.333-.833 0 0-4.332-5.25-8.166.834 0 0-8.168-1.75-15.334-14.25l1 4.333-2.5-2.5zm-10-14.667s6.667-1.166 3.167-10.333c0 0 8.666 9.666-3.167 10.333M315.5 442c-.39-.525-.59-1.17-.557-1.77.023-.605.275-1.158.643-1.622.752-.925 1.832-1.588 2.96-2.117 2.262-1.075 4.75-1.73 7.235-2.33a163.538 163.538 0 0 1 7.594-1.49c2.546-.443 5.083-.885 7.63-1.17 2.543-.327 5.09-.554 7.634-.608 2.545-.11 5.083.02 7.615.256 5.062.523 10.042 1.885 14.915 3.854-4.26-3.08-9.297-5.197-14.567-6.185-2.63-.535-5.317-.718-7.99-.78a65.197 65.197 0 0 0-7.975.495c-5.28.72-10.385 1.824-15.47 3.417-2.53.817-5.037 1.816-7.332 3.3-1.114.767-2.243 1.652-2.93 2.93-.33.63-.516 1.375-.396 2.08a2.98 2.98 0 0 0 .994 1.74" fill="#4d4d4d"/><path d="M318.382 435.912c-1.048-4.08 19.32-35.51 42.22-4.96m-87.768-4.274s54.614-41.71 107.5-3.678m-38.2 6.863s6.328-3.543 7.43-9.37m-98.897-67.327s-28.167 5.833-26-8c2.167-13.833 15-7.333 24-8.833s14.5 16 6.833 20.333c-7.666 4.334-9.833 4.5-10.833 5" fill="none" stroke="#4d4d4d" stroke-width="3" stroke-miterlimit="10"/><path d="M229.5 348.873l.667-8.707s12.017-.834 11.675 5c-.342 5.834-12.342 3.707-12.342 3.707zm21.925 9.98s-3.408 8.647-9.583 12.647c0 0-2.008 33.667-1.675 39.167.333 5.5-4.666 9.333-10 8.333-5.333-1-6.57-3.833-5.618-17.333.95-13.5 2.616-26 4.95-30.834 2.333-4.833 9-2.333 9.833-1.833" fill="none" stroke="#4d4d4d" stroke-width="3" stroke-miterlimit="10"/><path d="M228.134 374.78s-.124-4.946-3.88-4.78c0 0-19.92 35.167-22.587 39.5-2.667 4.333-13.167-2.667-11.833-9.167 1.333-6.5 12.167-28 21.833-35.5 9.667-7.5 12.43.333 12.882 1" fill="none" stroke="#4d4d4d" stroke-width="3" stroke-miterlimit="10"/><path d="M212.23 364.416s-16.063-8.416-4.563-20.583c11.5-12.167 17.332-19.334 21.832-16.667 4.5 2.667 4.87 7.83 2.5 8.914m-7.085 12.793s-8.58 10.96-10.08 11.627" fill="none" stroke="#4d4d4d" stroke-width="3" stroke-miterlimit="10"/><path d="M223.167 337.166c-2.31-2.99-1.066-5.666 4.967-9.833 0 0 2.913-.833 5.306 5.667 2.394 6.5 0 .666 0 .666s-7.44 7.166-10.273 3.5zM203.52 349.25s-6.02-7.917-1.52-15.417S222.08 324 222.08 324s1.596-.305 2.175 3.68m-7.51-2.5s-2.164 5.092 3.13 5.956" fill="none" stroke="#4d4d4d" stroke-width="3" stroke-miterlimit="10"/><path d="M229.5 327.166s9.5-11.832 18.833-9.166c9.334 2.666 16.27 14.5 10.803 29.333" fill="none" stroke="#4d4d4d" stroke-width="3" stroke-miterlimit="10"/><path d="M224.255 326.61s8.746-16.777 24.412-13.777c15.667 3 22.833 25 25.833 35.167 3 10.166 6 10.852 6 10.852s19.45 13.707 10.167 31.48c-7.833 15-15.5 16.67-15.5 16.67m-33.317-25.17s14.983 6.834 27.483-9" fill="none" stroke="#4d4d4d" stroke-width="3" stroke-miterlimit="10"/><path d="M240.993 386.815s8.857 8.018 10.432 13.018c1.575 5 10.408 28.834 36.41 5.667 0 0 13.267-22 26.883-23.667 0 0-2.217 16 1.616 23.333" fill="none" stroke="#4d4d4d" stroke-width="3" stroke-miterlimit="10"/><path d="M321.667 407s-1.52-10.22-.41-15.07c.11-.48.245-.906.41-1.264 1.833-4 19.5-6 19.5-6s-5.45-12.834 1.775-28.5 6.06-18.178 8.392-32.172c2.333-13.994-1-37.494-1-37.494L337.5 270.833s-43.5 0-66.5 25c0 0 13.167 13.167 13.334 20.667 0 0-9.834 21.167-11.5 27" fill="none" stroke="#4d4d4d" stroke-width="3" stroke-miterlimit="10"/><path d="M300 325.18s8.167-11.68 23.667-8.847c15.5 2.833 22.333 15.084 20.833 23.792m-36.23 43.895s25.73-21.854 29.23-27.187m-.83 50.307s-8.166-13.473 0-17.14m.83 11s.042-11.386-2.646-14.776m16.16 23.052l11.214-14.61-17.526-5.66" fill="none" stroke="#4d4d4d" stroke-width="3" stroke-miterlimit="10"/><path d="M349.565 406s-7.898-14.627-3.064-21.98l16.668-2.187s-14.282-13.667-20.224-25.667m17.658 32.84l-1.488-6.64m.743-5.2s5.477-16 14.977-23.333c9.5-7.333 5.857-29.666-7.49-31.833m1.823 0s4.5-35 14.333-43.834c0 0-16.667-7.333-28.5-7.333l-4.666 15.667" fill="none" stroke="#4d4d4d" stroke-width="3" stroke-miterlimit="10"/><path d="M352.074 350.688c.747-2.42.498-4.646-.557-4.97-1.054-.326-2.514 1.37-3.26 3.792-.748 2.42-.5 4.647.555 4.972 1.055.325 2.515-1.373 3.262-3.794zm5.9-22.215c.4-2.502-.16-4.67-1.25-4.843-1.09-.174-2.298 1.712-2.696 4.214-.4 2.502.16 4.67 1.25 4.844 1.09.174 2.297-1.713 2.695-4.215zm1.03-24.783c-.174-2.526-1.208-4.513-2.31-4.436-1.1.077-1.85 2.185-1.675 4.712.17 2.528 1.207 4.515 2.307 4.438 1.1-.076 1.852-2.186 1.676-4.713z" fill="none" stroke="#4d4d4d" stroke-width="2" stroke-miterlimit="10"/><path d="M380.334 343.833S388 347.833 395 342m-23.833-27.167s13.666-.167 14.333-13.667c.667-13.5-7.166-14-7.166-14m.02 12.087s.194-4.015-2.83-6.134" fill="none" stroke="#4d4d4d" stroke-width="3" stroke-miterlimit="10"/><path d="M385.54 294.5s5.46 2.66 4.794 9.33c-.667 6.67 5.666 21.686 6.833 24.178C398.334 330.5 403.5 340 395 351.5s-18.666 28.167-21.666 38.5c-3 10.333-10.537 19.073-19.436 20.037m-80.22-116.917s-10.678-16.955-8.01-39.62c0 0-14.334-40.335-12.5-74.5 0 0-4.834-5.833-1-9.667 0 0 8.832 10.667 17.165 3 0 0 3 6.167.667 8.5 0 0 22.334 54.832 37.667 67.666 0 0 30.833 8.832 48.333 7.665" fill="none" stroke="#4d4d4d" stroke-width="3" stroke-miterlimit="10"/><path d="M336.615 254.84s6.553-50.673 16.22-65.007c0 0-1.683-4.833 2.158-5.5 0 0-1.124-4.5 3.108-4.167 0 0 2.4 6.5 10.4 8.667 0 0 2.168 6.166-1.582 6.333 0 0-5.05 50.435 5.35 78.884" fill="none" stroke="#4d4d4d" stroke-width="3" stroke-miterlimit="10"/><path d="M299.16 277.983S266.335 194.165 265.668 182c0 0 1.958-4.494-1.105-7.08m83.317 108.586s-2.86-21.642-7.037-28.074m26.074 17.118s-9.75-56.884-2.917-77.384c0 0 3.557-3.454 1.278-7.56" fill="none" stroke="#4d4d4d" stroke-width="2" stroke-miterlimit="10"/><path d="M252.167 169.333s.833-4 1.167-5.334h2.833s.167-2.5 1.5-3.335c1.333-.833 17.5-1 17.5 0s3.667 8.666-5 9.833c-8.667 1.166-11.45-3.334-11.45-3.334m98.295 12.984l3.155-5.982h5.167l.833 4.333s4.2-4.168 6.1-4.335c1.9-.167 13.273 0 13.273 0s2.294 3.464-3.373 5.982c-5.667 2.518-8 3.852-13.667 8.685M232.647 331.136s14.202-5.968 22.944 7.78" fill="none" stroke="#4d4d4d" stroke-width="3" stroke-miterlimit="10"/></g></svg>