<svg xmlns="http://www.w3.org/2000/svg" width="736.6" height="739.168"><defs><clipPath id="a"><path d="M0 792h612V0H0v792z"/></clipPath><clipPath id="b"><path d="M0 792h612V0H0v792z"/></clipPath></defs><g clip-path="url(#a)" transform="matrix(1.25 0 0 -1.25 -13.77 972.708)"><path d="M182 636s-74-82-107-101c0 0 2-88.333 5-107.667 0 0-28.333 26.334-37 41.667 0 0-1-7.333 0-11 0 0-51.667 79-23.667 186s149.334 144.667 207 111c0 0 91 4.667 105.334-118.333 14.333-123-28-174.334-28-174.334l2.333 31s-3.333-27.332-35.667-66c0 0 9.334 94 6 114.667 0 0-55.666 50-60.666 102.667 0 0-14.667-68.667-80.334-110 0 0 36 55.666 46.667 101.333" fill="#4d4d4d"/><path d="M181.148 539.667H165.56C144.488 549.912 65 555.713 65 555.713c1.037-24.21-1.73-69.865 50.497-75.746 37.11-4.177 46.974 27.61 49.578 46.367h16.558c2.604-18.757 12.47-50.544 49.578-46.367 52.23 5.88 49.46 51.535 50.5 75.746 0 0-79.49-5.8-100.56-16.046m-86.15 42l58.667-21.333-1.667-4.62s-40.333 10.953-57 23.953 0 2 0 2m152.927 0l-58.667-21.333 1.667-4.62s40.333 10.953 57 23.953 0 2 0 2" fill="#4d4d4d"/><path d="M172.822 477.666s-3.51-7 0-12.333M147 441.666s30.667 5.333 53.333 2" fill="none" stroke="#4d4d4d" stroke-width="3" stroke-miterlimit="10"/><path d="M61.666 479.593S84.75 416 172.043 416c87.29 0 119.29 69.333 119.29 69.333" fill="none" stroke="#4d4d4d" stroke-width="3" stroke-miterlimit="10"/><path d="M139.06 419.388S134.5 396 150.75 377.5l16.25 23 3-.75-12.49 16.868m46.395 2.77S208.467 396 192.217 377.5l-16.25 23-3-.75 12.49 16.868M130.25 341.25l8.222 12.5L114.5 380.5l14.763 39.09s.057 1.427-1.26.315c-4.238-3.575-14.503-11.697-25.753-16.655-14.75-6.5-25.75-10.25-27-11.75S68 267 88.75 257.25s84.51 18.653 84.51 18.653m40.982 146.123l15.508-47.276-22-21.5 11-21L209.5 322" fill="none" stroke="#4d4d4d" stroke-width="3" stroke-miterlimit="10"/><path d="M216 422.026S244 396.75 272 391c0 0 3.5-122.25-16.25-129.5s-101.514 21.25-101.514 21.25.014 36.143 15.764 55.07c0 0 48.5-18.07 52.5-19.82s20.25-36.25 22.75-44.5" fill="none" stroke="#4d4d4d" stroke-width="3" stroke-miterlimit="10"/><path d="M224.387 316.103S223 321 227.75 322c0 0 .5 32 5.25 39.5s23 21.75 39 29.5m-150.022-74.897s1.388 4.896-3.362 5.896c0 0-.5 32-5.25 39.5s-23 21.75-39 29.5m94.207-54.996L154.236 340S137.5 325.5 139.5 288l14.453-3.5m-8.703 47.82c-.534-4.648-6.32-7.8-12.924-7.043-6.603.758-11.524 5.14-10.99 9.79.533 4.648 6.32 7.8 12.923 7.042 6.602-.76 11.523-5.143 10.99-9.79z" fill="none" stroke="#4d4d4d" stroke-width="3" stroke-miterlimit="10"/><path d="M142.26 335.43c-.37-3.225-4.383-5.41-8.962-4.885-4.58.526-7.993 3.565-7.622 6.788.37 3.224 4.382 5.41 8.962 4.885 4.58-.526 7.992-3.565 7.622-6.79zm-18.094-6.727s-6.12-18.953 1.482-29.203l12.824-3.5s-6.28 12.724 0 29.737" fill="none" stroke="#4d4d4d" stroke-width="3" stroke-miterlimit="10"/><path d="M123.063 304.69l13.33-3.82m-13.383 8.95l13.33-3.82m-14.503 10.103l13.33-3.82M121.837 322l13.33-3.82" fill="none" stroke="#4d4d4d" stroke-width="2" stroke-miterlimit="10"/><path d="M96.25 273.25s12.59 26.274 25.046 39.102m64.928 19.41c2.507 7.82 16.727 66.683 16.727 66.683" fill="none" stroke="#4d4d4d" stroke-width="3" stroke-miterlimit="10"/><path d="M159.672 390.128S162 380 164.75 377.5H179s3.34 6.006 4.295 12.628l-6.795 9.617h-10.034l-6.794-9.617z" fill="#4d4d4d"/><path d="M159.672 390.128S162 380 164.75 377.5H179s3.34 6.006 4.295 12.628l-6.795 9.617h-10.034l-6.794-9.617z" fill="none" stroke="#4d4d4d" stroke-width="3" stroke-miterlimit="10"/><path d="M167.22 336.38l2.78 1.44 14.77-5.515 3.96 8.64-10.754 36.555-11.726 3.25-8.64-34.035 2.697-8.407" fill="#4d4d4d" stroke="#4d4d4d" stroke-width="3" stroke-miterlimit="10"/><path d="M143.453 388.623s8.954-31.08 16.854-50.315m-52.557-82.993s1.046-9.814 1.023-11.564C108.75 242 95.75 220.167 88 188.335m163.75 71.986s-1.312-14.82-1.29-16.57c.024-1.75 13.024-23.586 20.774-55.418M117.858 337.82l3.98-.947m42.08-64.42l4.655-61.203 29.677-22.918m-18.792 14.512l-16.708-14.512" fill="none" stroke="#4d4d4d" stroke-width="3" stroke-miterlimit="10"/><path d="M189.907 221.823a8.823 8.823 0 0 0-8.823-8.823 8.823 8.823 0 0 0-8.823 8.823 8.823 8.823 0 0 0 8.825 8.823 8.823 8.823 0 0 0 8.823-8.823z" fill="none" stroke="#4d4d4d" stroke-width="3" stroke-miterlimit="10"/><path d="M129.676 420.684S107.834 402 75.25 391.5c0 0-8.063-129.6 13.5-134.25C105.667 253.604 107 257 107 257l1.773-13.25S90.333 203.664 88 188.332h183.235s-12.978 45.168-20.773 55.418l1.288 16.57s9.633-.183 12.95 16.248C268.015 292.998 276 347 272 391c0 0-21.333 3.052-56 31.026l-12.095-2.637s4.876-11.534-17.68-87.63L170 337.823s-14.426-12.155-16.046-53.322L139.5 288l-1.028 8-12.824 3.5s-3.638 3.094-3.81 20.025L118.615 322l-.757 15.822 3.977-.95s1.083 5.72 11.456 5.424c10.375-.296 11.958-9.975 11.958-9.975s-1.445-5.32 8.986 7.68c10.43 13 0 1.174 0 1.174l6.07-2.865s-20.516 42.135-21.244 81.08l-9.386 1.295zm319.472 118.983H433.56C412.49 549.912 333 555.713 333 555.713c1.038-24.21-1.73-69.865 50.498-75.746 37.108-4.177 46.974 27.61 49.578 46.367h16.557c2.605-18.757 12.47-50.544 49.578-46.367 52.23 5.88 49.46 51.535 50.5 75.746 0 0-79.49-5.8-100.56-16.046m-86.15 42l58.667-21.333-1.667-4.62s-40.333 10.953-57 23.953c-16.666 13 0 2 0 2m152.928 0l-58.667-21.333 1.67-4.62s40.332 10.953 57 23.953c16.665 13 0 2 0 2" fill="#4d4d4d"/><path d="M440.822 477.666s-3.51-7 0-12.333M415 441.666s30.668 5.333 53.334 2" fill="none" stroke="#4d4d4d" stroke-width="3" stroke-miterlimit="10"/><path d="M318 586.013c-1.667-70.32 11.667-106.42 11.667-106.42S352.75 416 440.043 416c87.29 0 105.29 49.333 105.29 49.333s15.334 33 22.667 85c0 0-13.667 27-16.667 44l8.667-4.666s-4 4.333-7.667 33l13.334-2s-14 32.666-53.667 31c0 0 4.334 5.333 16.667 6.333 0 0-21.666 1.333-35-7.667" fill="none" stroke="#4d4d4d" stroke-width="3" stroke-miterlimit="10"/><path d="M407.063 419.388S402.5 396 418.75 377.5l16.25 23 3-.75-12.49 16.868m46.396 2.77s4.56-23.388-11.69-41.888l-16.25 23-3-.75 12.49 16.868M398.25 341.25l8.223 12.5L382.5 380.5l14.764 39.09s.056 1.427-1.26.315c-4.238-3.575-14.503-11.697-25.754-16.655-14.75-6.5-25.75-10.25-27-11.75S336 267 356.75 257.25s84.512 18.653 84.512 18.653m40.98 146.123l15.508-47.276-22-21.5 11-21L477.5 322" fill="none" stroke="#4d4d4d" stroke-width="3" stroke-miterlimit="10"/><path d="M484 422.026S512 396.75 540 391c0 0 3.5-122.25-16.25-129.5s-101.514 21.25-101.514 21.25.014 36.143 15.764 55.07c0 0 48.5-18.07 52.5-19.82s20.25-36.25 22.75-44.5" fill="none" stroke="#4d4d4d" stroke-width="3" stroke-miterlimit="10"/><path d="M492.388 316.103S491 321 495.75 322c0 0 .5 32 5.25 39.5s23 21.75 39 29.5m-150.022-74.897s1.388 4.896-3.362 5.896c0 0-.5 32-5.25 39.5s-23 21.75-39 29.5m94.208-54.996L422.236 340S405.5 325.5 407.5 288l14.454-3.5m-8.704 47.82c-.533-4.648-6.32-7.8-12.924-7.043-6.603.758-11.523 5.14-10.99 9.79.533 4.648 6.32 7.8 12.924 7.042 6.603-.76 11.524-5.143 10.99-9.79z" fill="none" stroke="#4d4d4d" stroke-width="3" stroke-miterlimit="10"/><path d="M410.26 335.43c-.37-3.225-4.383-5.41-8.962-4.885-4.58.526-7.992 3.565-7.622 6.788.37 3.224 4.383 5.41 8.963 4.885 4.576-.526 7.99-3.565 7.62-6.79zm-18.094-6.727s-6.12-18.953 1.482-29.203l12.825-3.5s-6.28 12.724 0 29.737" fill="none" stroke="#4d4d4d" stroke-width="3" stroke-miterlimit="10"/><path d="M391.063 304.69l13.33-3.82m-13.383 8.95l13.332-3.82m-14.504 10.103l13.33-3.82M389.838 322l13.33-3.82" fill="none" stroke="#4d4d4d" stroke-width="2" stroke-miterlimit="10"/><path d="M364.25 273.25s12.59 26.274 25.047 39.102m64.928 19.41c2.507 7.82 16.727 66.683 16.727 66.683" fill="none" stroke="#4d4d4d" stroke-width="3" stroke-miterlimit="10"/><path d="M427.673 390.128S430 380 432.75 377.5H447s3.34 6.006 4.295 12.628l-6.795 9.617h-10.033l-6.794-9.617z" fill="#4d4d4d"/><path d="M427.673 390.128S430 380 432.75 377.5H447s3.34 6.006 4.295 12.628l-6.795 9.617h-10.033l-6.794-9.617z" fill="none" stroke="#4d4d4d" stroke-width="3" stroke-miterlimit="10"/><path d="M435.22 336.38l2.78 1.44 14.772-5.515 3.96 8.64-10.755 36.555-11.727 3.25-8.64-34.035 2.698-8.407" fill="#4d4d4d" stroke="#4d4d4d" stroke-width="3" stroke-miterlimit="10"/><path d="M411.453 388.623s8.955-31.08 16.854-50.315m-52.557-82.993s1.047-9.814 1.023-11.564C376.75 242 363.75 220.167 356 188.335m163.75 71.986s-1.31-14.82-1.288-16.57c.022-1.75 13.022-23.586 20.772-55.418M385.86 337.82l3.978-.947m42.08-64.42l4.656-61.203 29.676-22.918m-18.79 14.512l-16.71-14.512" fill="none" stroke="#4d4d4d" stroke-width="3" stroke-miterlimit="10"/><path d="M457.908 221.823a8.824 8.824 0 1 0-17.647 0 8.824 8.824 0 0 0 17.65 0z" fill="none" stroke="#4d4d4d" stroke-width="3" stroke-miterlimit="10"/><path d="M397.676 420.684S375.834 402 343.25 391.5c0 0-8.062-129.6 13.5-134.25 16.917-3.646 9.637.083 9.637.083l-2.137-18s-5.916-35.67-8.25-51h183.235S530 227.998 526 242.665l-3.667 16s7.05 1.47 10.366 17.902C536.015 292.997 544 347 540 391c0 0-21.333 3.052-56 31.026l-12.094-2.637s4.875-11.534-17.68-87.63L438 337.823s-14.426-12.155-16.046-53.322L407.5 288l-1.027 8-12.824 3.5s-3.64 3.094-3.813 20.025l-3.22 2.475-.757 15.822 3.978-.95s1.082 5.72 11.455 5.424c10.374-.296 11.957-9.975 11.957-9.975s-1.444-5.32 8.987 7.68c10.43 13 0 1.174 0 1.174l6.07-2.865s-20.517 42.135-21.244 81.08l-9.387 1.295z" fill="#4d4d4d"/><path d="M457.908 262.427a8.824 8.824 0 1 0-17.647 0 8.824 8.824 0 0 0 17.65 0zm-268 0a8.823 8.823 0 0 0-8.824-8.823 8.823 8.823 0 0 0-8.823 8.823 8.823 8.823 0 0 0 8.825 8.823 8.823 8.823 0 0 0 8.823-8.823zM335.892 467.6s-42.226 10.47-44.56 69.435M568 550.333c26.33 43.84 37 7.667 25-37.667-12-45.333-45.078-41.166-45.078-41.166" fill="none" stroke="#4d4d4d" stroke-width="3" stroke-miterlimit="10"/><path d="M555.183 492.355s13.642.31 17.73 12.978c4.087 12.667 0 24.334 0 24.334s11.42 36.333 15.42 21.666c4-14.666-7-47-7-47M329 636.667s25.666 12 33.333 15.667L351 656s49-4.333 57-11.333l-16.626 17.667s28.1-13 30.862-18c0 0 .765 11.666-2.57 18 0 0 16.335-16.667 17-20.667 0 0 7.335 10.14 8 16.403l-1.738-15.403s12.74 3.333 17.74 9.333l-3.407-8S474 645.334 479 656v-9.666s24.666-4.667 32.333 47C519 745 469.333 768 449 776.667c0 0 39.5-24 37.75-61 0 0 3.917 43.667-55.75 47 0 0 22.13-9.667 25.73-18.667 0 0-28.397 16.334-63.397 2 0 0 32.086 3 46.71-5 0 0-71.043 19.334-111.043-25 0 0 39 19.334 55 10 0 0-46.44 9.667-70.387-33.333M507.59 727.16S545.334 747.333 576 692" fill="none" stroke="#4d4d4d" stroke-width="3" stroke-miterlimit="10"/><path d="M534.333 715s60.472-17.667 63.57-63.333c0 0-7.08 18.333-24.99 25.666 0 0 38.753-14.382 21.42-75.333 0 0 2 18.333-7 28.667 0 0 13.766-15.858-3.45-61.763" fill="none" stroke="#4d4d4d" stroke-width="3" stroke-miterlimit="10"/><path d="M442.928 642.667c39.26 29.667 2.74 79.333 2.74 79.333s57.187-39.666 11.593-78m-49.593 82.333s49.667-36 29-84.667M345 692s67.473-14 77.236-47.667m86.077 34.182s45.02-1.516 62.354-35.85c0 0-11.582 52.346-60.57 43.52m-13.43 46.482s18.666-52.334-17.667-86.333" fill="none" stroke="#4d4d4d" stroke-width="2" stroke-miterlimit="10"/><path d="M547.922 554.82l29.73 8.91s-8.598-8.067-10.55-19.412L545 538.668l2.922 16.153zm-214.578 0l-29.73 8.91s8.598-8.067 10.55-19.412l22.102-5.65-2.922 16.153z" fill="#4d4d4d"/></g><g clip-path="url(#b)" transform="matrix(1.25 0 0 -1.25 -13.77 972.708)" fill="#4d4d4d"><path d="M174.075 466.158c-2.982 4.53.058 10.776.09 10.84l-2.684 1.34c-.157-.316-3.852-7.842.09-13.83l2.506 1.65zm-27.332-23.014l.514-2.956c.304.053 30.695 5.25 52.858 1.994l.437 2.968c-22.646 3.333-53.5-1.95-53.81-2.005M363 579.667c16.667-13 57-23.954 57-23.954l1.667 4.62L363 581.668s-16.666 11 0-2m152.928 2l-58.667-21.334 1.67-4.62s40.332 10.953 57 23.953c16.665 13 0 2 0 2m-73.855-115.51c-2.98 4.53.06 10.777.09 10.84l-2.684 1.34c-.157-.315-3.85-7.84.09-13.83l2.506 1.65zm-27.332-23.013l.514-2.956c.305.053 30.686 5.254 52.86 1.994l.435 2.968c-22.64 3.33-53.5-1.952-53.81-2.005"/><path d="M591.55 513.05c-9.98-37.707-34.373-40.258-41.495-40.17 1.69 4.4 3.877 10.494 6.234 18.065 3.466.4 14.38 2.554 18.05 13.927 3.77 11.678.895 22.387.146 24.8 3.997 12.576 9.238 23.573 11.263 23.654.004-.003.563-.29 1.135-2.388 3.833-14.054-6.864-45.803-6.973-46.122l2.84-.966c.455 1.338 11.102 32.94 7.027 47.877-.307 1.123-1.24 4.54-3.945 4.593h-.047c-5.48 0-11.828-18.313-14.308-26.204l-.15-.476.164-.47c.04-.112 3.876-11.33-.01-23.377-2.814-8.715-10.485-11.07-14.235-11.704 4.306 14.31 9.006 33.285 12.19 55.717 8.3 13.753 15.757 20.502 20.466 18.51 7.07-2.986 9.415-25.907 1.643-55.268m-47.578-47.086l-.05-.118c-.043-.12-4.527-12.077-19.437-24.01-8.296-6.638-20.9-14.037-39.236-18.914l-.246.216-.33-.365c-12.22-3.196-26.95-5.275-44.632-5.275-44.515 0-71.76 17.008-86.776 31.276-16.288 15.476-22.133 31.172-22.193 31.336-.067.182-3.48 9.686-6.605 28.053 2.61 9.124 4.988 19.696 6.788 31.78l2.365-.603c1.467-24.313 7.956-54.656 49.876-59.375 37.11-4.178 46.975 27.61 49.578 46.366h16.558c2.604-18.756 12.47-50.543 49.578-46.365 42.136 4.744 48.475 35.375 49.897 59.75l16.405 4.194c-7.524-47.354-21.396-77.63-21.542-77.946M424.693 415.2l9.65-13.03-.652-.925-2.663-3.77-12.38-17.523c-11.965 14.827-10.933 32.53-10.322 37.677a146.953 146.953 0 0 1 16.37-2.43m15.514-13.956h-1.45l-10.1 13.64c3.67-.247 7.456-.385 11.384-.385 3.502 0 6.88.09 10.16.242l-9.995-13.498zm30.53 15.557c.595-6.007 1-22.71-10.418-36.85l-15.696 22.218 9.473 12.792c5.904.39 11.453 1.014 16.64 1.84m-43.703-30.175c.943-3.303 2.6-8.176 4.59-10.116l-6.5-25.61c-3.433 9.615-6.717 19.938-9.016 27.418a50.57 50.57 0 0 1 1.514-1.81l1.255-1.43 8.156 11.547zm29.597-40.028l-8.685 29.517.363.653c.118.21 2.41 4.38 3.762 9.657l8.017-11.346 1.254 1.43a49.6 49.6 0 0 1 3.996 5.21c-2.644-10.82-6.056-24.68-8.708-35.12m-47.79-52.03c.137 27.87 11.2 41.027 13.825 43.753l11.456-3.192c-10.785-16.04-12.882-39.842-13.288-48.816l-11.892 2.88a111.93 111.93 0 0 0-.1 4.606l.43-.118-.433.887zm-1.205 29.952c1.677.57 3.137 1.404 4.294 2.445-2.64-6.08-5.006-14.297-5.805-24.974-1.113 4.98-1.81 13.058 1.51 22.53m-4.57-5.273l-10.87 3.113c.28 1.54.584 2.863.836 3.862 1.99-1.25 4.428-2.13 7.12-2.438.707-.08 1.42-.122 2.124-.122.666 0 1.313.045 1.948.114a46.56 46.56 0 0 1-1.162-4.53m-11.364-10.667l10.754-3.08a40.69 40.69 0 0 1 .502-3.184l-10.52 3.016a23.14 23.14 0 0 0-.736 3.247m10.484 2.94a43.21 43.21 0 0 1 .072-3.887l-10.806 3.097a36.804 36.804 0 0 0-.093 3.894l10.825-3.104zm6.584 24.075c-.238-2.072-2.867-3.633-6.116-3.633-.392 0-.79.022-1.185.068-1.91.22-3.63.933-4.84 2.012-1.067.948-1.587 2.054-1.465 3.115.187 1.62 1.847 2.918 4.113 3.41l.223-.147.143.215c.132.023.257.055.392.073.09.002.18.008.27.008.59 0 1.188-.033 1.782-.1a15.11 15.11 0 0 0 3.816-.95c1.864-.997 3.04-2.53 2.864-4.07m-18.29-7.3a58.08 58.08 0 0 1-1.312-5.725c-.313.2-.667.39-1.074.55-.05 2.14-.2 7.055-.59 12.763l.44-.104c-.036-.183-.076-.36-.097-.547-.288-2.512.734-4.95 2.633-6.937m11.81-14.725l-10.69 3.064a7.77 7.77 0 0 1 .025 1.796c.074.667.157 1.317.25 1.943l10.835-3.106a44.022 44.022 0 0 1-.42-3.695m-.01 13.09c-.59 0-1.19.034-1.783.102-5.673.652-10.1 4.373-9.67 8.128.12 1.06.62 2.034 1.405 2.872-.014-.088-.036-.174-.046-.263-.236-2.057.634-4.08 2.448-5.697 1.67-1.485 3.975-2.463 6.494-2.752a13.517 13.517 0 0 1 1.527-.086c4.46 0 8.045 2.24 8.92 5.433a4.71 4.71 0 0 0 .185-1.91c-.38-3.32-4.457-5.825-9.48-5.825m1.73-28.438l-9.45 2.58a15.2 15.2 0 0 0-1.237 2.195l10.144-2.91c.18-.687.365-1.317.542-1.866m-89.08 183.74c2.482 5.437 5.12 12.055 7.633 19.907 2.856-14.907 5.634-22.63 5.694-22.792.108-.297 1.35-3.642 4.2-8.676-4.036 1.674-10.75 5.13-17.527 11.562m-9.027 10.73c.07.413.097.637.097.637l-.053-.704-.044.067m-42.59-41.01c-17.048-15.595-46.722-34.185-91.27-34.185-44.516 0-71.76 17.008-86.777 31.276a103 103 0 0 0-7.55 7.99c-.727 14.11-1.33 30.54-1.78 44.696 7.117-10.808 19.13-19.195 39.56-21.495 37.11-4.178 46.975 27.61 49.58 46.366h16.556c2.604-18.756 12.47-50.543 49.58-46.365 27.832 3.133 40.044 17.564 45.54 34.024-.597-16.067-1.99-35.55-3.326-51.977a132.445 132.445 0 0 0-10.114-10.33M156.693 415.2l9.65-13.03-15.697-22.218c-11.965 14.826-10.933 32.53-10.323 37.677a146.988 146.988 0 0 1 16.37-2.43m15.515-13.956h-1.45l-10.098 13.64c3.668-.247 7.455-.385 11.382-.385 3.504 0 6.907.124 10.232.34l-10.066-13.596zm30.442 16.332c.61-5.216 1.594-22.852-10.33-37.625l-15.695 22.218 9.61 12.978a145.11 145.11 0 0 1 16.415 2.43m-43.615-30.952c.942-3.303 2.6-8.175 4.592-10.115l-6.502-25.608c-3.434 9.614-6.717 19.936-9.016 27.416a50.57 50.57 0 0 1 1.512-1.81l1.255-1.43 8.157 11.546zm29.597-40.028l-8.686 29.517.365.655c.12.21 2.41 4.38 3.763 9.657l8.017-11.346 1.254 1.43a49.947 49.947 0 0 1 3.996 5.21c-2.644-10.82-6.056-24.683-8.708-35.123m-47.79-52.03c.136 27.87 11.2 41.028 13.824 43.755l11.458-3.194c-10.785-16.04-12.882-39.84-13.288-48.816l-11.892 2.88c-.07 1.58-.095 3.107-.1 4.606l.43-.118-.432.885zm-1.206 29.954c1.68.57 3.138 1.405 4.296 2.447-2.64-6.08-5.006-14.3-5.805-24.978-1.113 4.98-1.812 13.06 1.51 22.53m-4.572-5.272L124.2 322.36a58.33 58.33 0 0 0 .83 3.836c2.036-1.27 4.495-2.11 7.124-2.41.707-.082 1.42-.123 2.124-.123.665 0 1.312.045 1.947.114a46.56 46.56 0 0 1-1.162-4.53M123.7 308.58l10.753-3.08a40.13 40.13 0 0 1 .503-3.183l-10.522 3.016a23.138 23.138 0 0 0-.734 3.247m10.484 2.94a42.48 42.48 0 0 1 .072-3.886l-10.806 3.097a36.806 36.806 0 0 0-.094 3.895l10.828-3.104zm6.584 24.076c-.24-2.072-2.868-3.633-6.117-3.633-.39 0-.79.022-1.184.068-1.91.22-3.63.934-4.84 2.013-1.065.948-1.584 2.054-1.462 3.115.186 1.62 1.846 2.918 4.114 3.41l.224-.147.14.216c.133.024.258.055.392.073.09 0 .18.007.27.007.59 0 1.19-.033 1.783-.1a15.167 15.167 0 0 0 3.815-.948c1.864-1 3.04-2.534 2.865-4.074m-18.3-7.334a57.937 57.937 0 0 1-1.302-5.69 6.13 6.13 0 0 1-1.075.547c-.05 2.14-.2 7.055-.59 12.763l.44-.104c-.036-.183-.077-.36-.098-.547-.283-2.473.65-4.915 2.625-6.97m11.818-14.692l-10.688 3.063a7.78 7.78 0 0 1 .025 1.797c.072.667.156 1.317.248 1.943l10.835-3.106a44.443 44.443 0 0 1-.42-3.695m-.01 13.09c-.588 0-1.187.034-1.78.102-2.89.332-5.5 1.42-7.346 3.066-1.7 1.514-2.528 3.312-2.327 5.062.12 1.06.62 2.033 1.406 2.872-.016-.09-.037-.174-.048-.263-.236-2.057.633-4.08 2.448-5.697 1.668-1.485 3.974-2.463 6.493-2.752a13.517 13.517 0 0 1 1.527-.086c4.46 0 8.047 2.24 8.923 5.432.19-.633.257-1.274.184-1.91-.38-3.32-4.458-5.825-9.48-5.825m1.728-28.437l-9.45 2.58c-.474.692-.88 1.43-1.235 2.195l10.144-2.908c.18-.688.364-1.318.54-1.867M182 636c-5.982-25.612-19.932-54.367-31.032-74.686l-30.6 11.127C151.126 601.79 182 636 182 636m-66.09-67.78c12.696-5.44 26.252-9.647 32.524-11.49a525.507 525.507 0 0 0-6.04-10.513c-13.5 2.645-29.755 4.775-43.88 6.342 5.59 4.78 11.46 10.09 17.395 15.66m127.283 11.724l-53.934-19.612 1.666-4.62s35.974 9.77 54.01 21.808c6.815-9.327 13.685-17.3 19.256-23.316-24.66-2.342-68.25-7.344-83.044-14.538h-15.59c-3.73 1.814-9.295 3.487-15.92 5.014 53.535 41.51 66.027 99.986 66.027 99.986 2.232-23.51 14.56-46.484 27.527-64.72M383.696 724.53l8.984-1.857-7.924 4.622c-12.265 7.155-36.545-1.367-48.89-6.554 39.654 35.667 103.115 18.995 103.784 18.813l12.246-3.327-11.133 6.09c-9.463 5.178-25.64 5.908-36.47 5.728 29.008 7.344 51.444-5.2 51.692-5.344l3.74-2.145-1.6 4.002c-2.42 6.04-12.183 12.146-19.17 15.875 16.322-2.12 28.607-7.84 36.584-17.044 9.01-10.396 9.77-22.383 9.756-26.287-.01-.452-.023-.904-.045-1.362l2.993-.205c.013.143.082.995.062 2.38.05 23.657-16.292 41.957-27.707 51.85 21.838-10.804 55.596-33.437 49.25-76.21-3.93-26.476-12.36-37.508-18.74-42.1-3.69-2.657-7.023-3.457-9.205-3.668 33.398 34.08 15.89 84.7 15.704 85.218l-1.884-.672c.18-.505 17.274-49.922-15.226-83.12v13.525l-2.858-6.098c-3.12-6.654-11.46-9.404-16.49-10.487 10.276 9.724 15.234 20.34 14.71 31.616-1.16 25.032-28.464 44.25-29.626 45.055l-4.93 3.42 3.555-4.832c.09-.122 9.063-12.445 13.19-28.202 5.202-19.866.72-35.928-13.306-47.797l1.397 12.37.015.132-2.98.328-.016-.126c-.217-1.813-1.045-4.002-2.08-6.16 4.89 20.97-2.52 38.866-10.328 50.844-9.82 15.064-22.375 24.256-22.5 24.347l-1.175-1.62c.123-.09 12.418-9.1 22.032-23.87 12.246-18.813 14.83-37.94 7.706-56.897-3.682 5.848-13.758 16.256-16.082 18.627l-7.17 7.316 4.772-9.065c1.563-2.968 2.156-7.284 2.365-10.856-15.324 29.392-72.896 41.66-75.5 42.2l-.407-1.958c.635-.13 60.33-12.843 74.57-42.064-7.832 5.58-23.59 12.993-27.363 14.738l-7.033 3.254 16.624-17.664c-15.987 5.11-48.79 8.062-50.46 8.21l-13.24 1.17 20.386-6.596a8608.27 8608.27 0 0 0-26.964-12.663c-2.843 22.24-8.223 40.216-15.115 54.73 23.458 38.98 67.05 30.488 67.496 30.396m127.77-39.15c19.332 3.128 34.966-2.97 46.45-18.195 4.402-5.836 7.338-11.987 9.178-16.696-17.25 24.06-49.224 28.235-57.002 28.904.492 1.924.956 3.91 1.376 5.987m-51.95-32.42c-2.493-2.99-7.176-5.31-10.994-6.823 12.513 12.096 16.485 28.407 11.465 47.574-2.614 9.983-7.135 18.627-10.222 23.793 7.933-6.72 23.272-21.95 24.1-39.83.477-10.27-3.893-20.017-13-29.04l5.175 12.158-6.525-7.83zM449.147 539.67h-15.59c-20.536 9.985-96.552 15.747-100.396 16.033 2.115 22.396 2.185 49.136-1.453 80.578 6.257 2.928 24.96 11.684 31.27 14.703l3.393 1.622-1.102.357c16.123-1.985 37.126-5.383 41.743-9.423l2.08 2.156-11.112 11.81c10.01-4.955 21.48-11.25 22.944-13.897l2.475-4.478.334 5.105c.024.355.403 6.503-.69 12.394 6.288-6.74 11.846-13.414 12.145-15.21l.59-3.542 2.105 2.91c.155.216 2.08 2.892 4.04 6.337l-.73-6.463 2.115.555c.406.106 7.734 2.056 13.566 5.706l-1.963-4.612 2.47.198c.618.048 13.217 1.146 20.12 8.635v-6.05l1.22-.23c.27-.053 6.638-1.182 14.02 4.07.418.297.823.628 1.23.953l.536-.793c6.067 4.094 14.03 5.974 20.73 6.817-3-1.618-4.3-3.172-4.4-3.295l-2.1-2.584 3.327.14c31.698 1.32 46.68-20.115 50.923-27.582l-12.392 1.86.25-1.97c2.09-16.32 4.298-24.904 5.88-29.34l-7.405 3.986.538-3.048c1.92-10.876 8.015-25.526 12.315-34.98l-12.475-3.74.014.36s-79.49-5.8-100.56-16.046m80.936 189.178c14.928-2.107 28.716-12.52 40.216-30.257a107.37 107.37 0 0 1-4.526 3.128c-15.513 10.13-30.397 14.543-31.023 14.726l-.84-2.88c.554-.162 51.787-15.566 61.15-53.392-3.843 5.925-10.487 13.72-20.697 18.178-.535.243-.863.368-.932.393l-1.09-2.795c.174-.07.345-.143.516-.216 1.99-.882 9.888-4.822 16.12-14.196 7.978-12.005 10.208-28.358 6.6-47.75-.754 5.86-2.648 12.737-7.113 17.865-.002 0-.002 0-.003.003l-2.27-1.962c.13-.153 12.794-15.877-3.55-59.806-2.248-1.34-4.804-3.542-7.69-6.962l-9.87-2.956c-3.846 8.45-9.258 21.308-11.635 31.525l13.774-7.44-6.086 6.593c-.153.19-3.666 4.818-7.062 30.246l14.028-2.106-1.06 2.474c-.14.323-13.732 31.034-50.475 31.95 2.467 1.345 6.403 2.826 12.218 3.298l-.03 2.992c-.78.047-16.73.937-29.83-4.65 4.455 5.486 8.018 13.025 10.65 22.584 7.45-.588 44.96-5.034 60.197-35.214l3.59-7.112-1.72 7.778c-.12.543-3.048 13.437-12.093 25.455-8.185 10.872-23.05 22.843-47.688 19.145.34 1.827.664 3.69.952 5.63 1.765 11.895.65 23.013-3.302 33.278 2.86 1.206 10.59 3.863 20.57 2.454m60.99-157.762c-1.277.54-2.83.77-4.67.365 4.376 12.3 6.51 22.39 7.294 30.547l2.076-.404c5.257 18.488 5.323 32.715 3.086 43.457l1.204-3.102-.667 9.823c-1.042 15.35-8.717 29.485-22.367 41.45-16.072 28.72-34.155 36.85-46.528 38.597-10.697 1.512-18.918-1.282-22.14-2.647-3.657 8.273-9.214 15.97-16.666 23.046-13.358 12.68-29.522 20.467-42.112 25.833l-1.367-2.663c.263-.158 17.767-10.988 28.632-28.965-9.845 10.63-25.232 16.597-45.768 17.744l-8.324.465 7.64-3.337c4.796-2.096 16.1-7.832 21.85-13.582-9.95 3.995-32.99 10.527-59.485-.32l-3.6-1.475c-19.67-2.12-43.51-9.217-61.278-28.91l-5.275-5.845 7.054 3.496c.046.023.66.325 1.73.82-5.962-4.4-11.747-10.292-16.753-18.158-30.78 60.625-88.31 57.682-88.31 57.682-57.667 33.666-179-4-207-111S43 458 43 458c-1 3.666 0 11 0 11 8.667-15.334 37-41.667 37-41.667-.74 4.777-1.42 13.767-2.025 24.593a108.395 108.395 0 0 1 5.11-5.216c9.505-9.057 23.78-19.18 44.002-25.62-.017-.015-.034-.024-.052-.04-3.91-3.297-14.21-11.5-25.39-16.428-6.15-2.71-11.648-4.942-16.065-6.734-7.813-3.17-10.562-4.324-11.482-5.428-1.32-1.584-2.075-29.808-2.11-44.493-.05-21.423.82-51.147 5.244-71.084 2.648-11.93 6.206-18.794 10.88-20.99 3.23-1.518 7.417-2.164 12.2-2.164 1.93 0 3.962.107 6.065.302.393-3.776.882-8.858.896-10.16-.16-.533-1.043-2.37-1.977-4.312-4.183-8.687-12.884-26.767-18.753-50.874l2.915-.71.09.356h73.202l.984-1.133 1.304 1.13h30.758l1.537-1.187.917 1.188h71.437l.09-.354 2.915.71c-5.87 24.106-14.57 42.186-18.753 50.874-.935 1.942-1.82 3.78-1.98 4.313.02 1.494.698 9.654 1.205 15.426 1.148.194 2.188.456 3.1.79 8.934 3.28 14.335 25.785 16.513 68.8 1.578 31.17.728 61.845.72 62.15l-.034 1.19-1.164.24c-23.698 4.865-47.752 24.242-53.828 29.397a131.672 131.672 0 0 1 46.962 27.692c2.76 2.53 5.28 5.05 7.584 7.52-1.428-17.067-2.686-29.748-2.686-29.748 24.403 29.184 32.283 51.902 34.682 61.295.19-.262.38-.523.572-.778l-1.92-25.518s4.4 5.345 9.883 16.697c9.602-8.81 18.884-11.984 21.356-12.714 3.597-5.662 8.84-12.614 16.18-19.607 9.503-9.058 23.777-19.18 44-25.62-.016-.016-.033-.025-.05-.04-3.91-3.298-14.212-11.5-25.39-16.43-6.154-2.71-11.65-4.94-16.067-6.733-7.814-3.17-10.56-4.324-11.483-5.428-1.32-1.585-2.075-29.81-2.11-44.494-.05-21.423.82-51.147 5.245-71.084 2.646-11.93 6.206-18.794 10.88-20.99 2.69-1.264 6.046-1.916 9.854-2.1l-1.717-14.46s-3.5-21.098-6.178-37.817a226.158 226.158 0 0 1-3.53-12.83l2.914-.71.09.356h73.203l.983-1.132 1.304 1.132h30.757l1.538-1.188.917 1.188h71.437l.09-.355 2.914.71a230.756 230.756 0 0 1-7.114 23.566c-2.682 11.193-5.704 23.545-7.577 30.414l-3.668 16s1.405.297 3.254 2.08c8.146 4.957 13.123 27.297 15.192 68.146 1.578 31.168.728 61.844.72 62.15l-.034 1.188-1.164.24c-22.027 4.523-44.363 21.583-52.283 28.108 17.745 5.006 30.102 12.325 38.34 18.917 15.172 12.142 19.956 24.19 20.36 25.263.154.338.955 2.12 2.182 5.18.266-.01.574-.016.925-.016 7.655 0 34.187 2.94 44.622 42.36 7.788 29.418 6.336 54.697-3.375 58.8"/></g></svg>