<svg xmlns="http://www.w3.org/2000/svg" xmlns:xlink="http://www.w3.org/1999/xlink" width="502.188" height="678.703"><defs><radialGradient cx="0" cy="0" r="1" fx="0" fy="0" id="a" gradientUnits="userSpaceOnUse" gradientTransform="rotate(90 -21.563 324.988) scale(385.0568)" spreadMethod="pad"><stop offset="0" stop-color="#231f20"/><stop offset=".632" stop-color="#fff"/><stop offset="1" stop-color="#fff"/></radialGradient><radialGradient cx="0" cy="0" r="1" fx="0" fy="0" id="b" gradientUnits="userSpaceOnUse" gradientTransform="rotate(90 -30.034 333.46) scale(385.05682)" spreadMethod="pad"><stop offset="0" stop-color="#231f20"/><stop offset=".632" stop-color="#fff"/><stop offset="1" stop-color="#fff"/></radialGradient><radialGradient cx="0" cy="0" r="1" fx="0" fy="0" id="c" gradientUnits="userSpaceOnUse" gradientTransform="rotate(90 -21.563 324.988) scale(385.05682)" spreadMethod="pad"><stop offset="0" stop-color="#231f20"/><stop offset=".632" stop-color="#fff"/><stop offset="1" stop-color="#fff"/></radialGradient><radialGradient cx="0" cy="0" r="1" fx="0" fy="0" id="d" gradientUnits="userSpaceOnUse" gradientTransform="rotate(90 -21.563 324.988) scale(385.05682)" spreadMethod="pad"><stop offset="0" stop-color="#231f20"/><stop offset=".632" stop-color="#fff"/><stop offset="1" stop-color="#fff"/></radialGradient><radialGradient cx="0" cy="0" r="1" fx="0" fy="0" id="e" gradientUnits="userSpaceOnUse" gradientTransform="rotate(90 -21.563 324.988) scale(385.05682)" spreadMethod="pad"><stop offset="0" stop-color="#231f20"/><stop offset=".632" stop-color="#fff"/><stop offset="1" stop-color="#fff"/></radialGradient><clipPath id="k"><path d="M0 792h612V0H0v792z"/></clipPath><radialGradient cx="0" cy="0" r="1" fx="0" fy="0" id="f" xlink:href="#a" gradientUnits="userSpaceOnUse" gradientTransform="rotate(90 -21.563 324.988) scale(385.0568)" spreadMethod="pad"/><radialGradient cx="0" cy="0" r="1" fx="0" fy="0" id="g" xlink:href="#b" gradientUnits="userSpaceOnUse" gradientTransform="rotate(90 -30.034 333.46) scale(385.05682)" spreadMethod="pad"/><radialGradient cx="0" cy="0" r="1" fx="0" fy="0" id="h" xlink:href="#c" gradientUnits="userSpaceOnUse" gradientTransform="rotate(90 -21.563 324.988) scale(385.05682)" spreadMethod="pad"/><radialGradient cx="0" cy="0" r="1" fx="0" fy="0" id="i" xlink:href="#d" gradientUnits="userSpaceOnUse" gradientTransform="rotate(90 -21.563 324.988) scale(385.05682)" spreadMethod="pad"/><radialGradient cx="0" cy="0" r="1" fx="0" fy="0" id="j" xlink:href="#e" gradientUnits="userSpaceOnUse" gradientTransform="rotate(90 -21.563 324.988) scale(385.05682)" spreadMethod="pad"/></defs><path d="M374.75 347.5L504.5 525V424.5L375.25 315l-.5 32.5z" fill="url(#f)" transform="matrix(1.25 0 0 -1.25 -130.313 939.953)"/><path d="M232.5 342L105.75 514.908v-80.186L232.5 308v34z" fill="url(#g)" transform="matrix(1.25 0 0 -1.25 -130.313 939.953)"/><path d="M387 604.333l-24.525-37.025-6.825-39.108s18.55-30.387 23.698-35.95c5.15-5.562 7.267-11.8 3.164-18.79-4.103-6.987-15.05-29.565-15.05-29.565l-1.88.04-6.784-9.382-11.2-.847-4.01-60.132 3.77-6.546-3.44-3.964 2.43-11.795 13.27-1.54L445.5 649.5l-59 55.5.5-100.667z" fill="url(#h)" transform="matrix(1.25 0 0 -1.25 -130.313 939.953)"/><path d="M343.588 460.667l1.745-5.667s18.25 16.64 18.167 21.666c-.084 5.026-13.5 15.584-13.5 15.584l-6.412-31.583z" fill="url(#i)" transform="matrix(1.25 0 0 -1.25 -130.313 939.953)"/><path d="M126.667 578.5L258.53 353.333l9.05 10.627c-5.22 3.956.42 8.11.42 8.11-5.784 12.345-4.333 47.93-4.333 47.93l-6.806 18.754C237.724 446.51 232.5 482.5 232.5 482.5l2.06 7.683L147 703l-20.333-124.5z" fill="url(#j)" transform="matrix(1.25 0 0 -1.25 -130.313 939.953)"/><g clip-path="url(#k)" transform="matrix(1.25 0 0 -1.25 -130.313 939.953)"><path d="M360.527 566.58c-13.67-17.97-31.428-27.08-52.777-27.08-21.346 0-38.262 7.724-50.277 22.956-5.67 7.19-8.852 14.45-10.438 18.87a341.71 341.71 0 0 0-.535 32.174s21.5 40 37.5 57.5c0 0-11.334-18.555-17.776-36.865-3.196-.59-6.576-1.732-10.093-3.667 0 0 3.787.514 9.043.55-.872-2.722-1.615-5.416-2.172-8.018 0 0 4.45 3.016 10.847 7.592 6.88-.768 14.168-2.75 18.654-7.342v3.5s-5.49 5.118-14.127 7.11c14.356 10.457 34.34 25.933 39.628 34.64 0 0-15.5-25.5-24.5-31 0 0 30.5 8 41 44 0 0 6.5-45 39-51.5 0 0 1.424-20.402-.47-41.107-2.06-5.22-6.03-13.807-12.502-22.314m-29.022-39.564l-6.027 10.91-9.203-17.22 3.177-5.294c-3.336-.99-10.56-3.378-18.53-7.5 5.655 6.66 14.45 16.608 20.71 23.586l.383.426v6.016a64.65 64.65 0 0 1 9.02 2.57c.644-2.343 1.656-7.44.47-13.495M300.765 471c0 1.103.898 2 2 2 1.104 0 2-.897 2-2s-.896-2-2-2c-1.102 0-2 .897-2 2m0-16.896c0 1.103.898 2 2 2 1.104 0 2-.897 2-2s-.896-2-2-2c-1.102 0-2 .897-2 2m41.99 72.652c3.543.308 9.764.042 11.048-.92.736-.692 4.1-6.114 7.355-11.357 6.702-10.803 15.045-24.245 19.11-27.743 5.292-4.55 5.22-9.175-.28-17.673-4.89-7.555-11.005-21.608-12.527-25.17-2.57-.15-10.97.338-17.612 11.867 3.76 3.95 14.905 16.068 15.148 21.174l.032.675-.396.385c-.012.057-.01.18.06.375.31.843 1.94 3.184 10.383 6.702l-1.154 2.77c-5.114-2.133-8.587-4.166-10.506-6.15-3.506 3.86-13.826 14.748-21.838 18.442-1.115 2.743-5.515 15.69 6.974 23.6l-1.605 2.533c-15.93-10.088-7.956-27.723-7.873-27.9l.243-.522.53-.225c.314-.133.634-.283.957-.443-1.065-3.283-3.868-12.298-3.84-16.188.034-4.16 4.6-19.896 6.48-26.197-1.784-1.455-3.375-3.33-3.087-5.264.24-1.62.17-3.36.09-4.398-.73-.934-1.3-1.96-1.404-2.975a3.15 3.15 0 0 1 .42-1.948c-12.78-5.11-28.374-5.053-31.64-4.98l-8.89 9.896c-.09 1.48-.052 4.413.01 7.873.48-1.667 2.005-2.897 3.825-2.897 2.206 0 4 1.795 4 4 0 2.206-1.794 4-4 4-1.77 0-3.257-1.163-3.783-2.76.096 5.276.154 10.082.08 14.156a4 4 0 0 1 3.703-2.5c2.206 0 4 1.794 4 4 0 2.205-1.794 4-4 4-1.76 0-3.244-1.153-3.776-2.737-.08 2.054-.21 3.847-.4 5.362 3.705-.293 7.5-.87 9.94-1.984 2.72-1.24 6.876-3.133 11.48-3.133 4.822 0 10.134 2.08 14.797 9.168l-2.506 1.65c-7.105-10.806-15.355-8.222-22.527-4.955-2.983 1.36-7.537 2.01-11.778 2.31-.164.544-.35 1.004-.56 1.352-2.24 3.667-2.44 16.852-2 19.015.057.11.157.263.28.44 12.752 8.03 26.267 11.525 26.403 11.56l1.953.497-4.35 7.25 5.8 10.85 6.82-12.348 1.082 3.248a32.036 32.036 0 0 1 1.528 7.546c2.273-1.576 5.583-3.53 7.805-3.334m19.015-47.72c-.025-.098-.057-.194-.076-.29a3.343 3.343 0 0 1 .25-2.086c-.79-3.76-9.335-13.716-14.867-19.455a24.68 24.68 0 0 1-1.042-.6c-2.913 9.83-6.047 21.41-6.07 24.407-.022 2.992 2.16 10.452 3.5 14.644 7.397-4.744 15.996-14.054 18.305-16.62m-2.972-44.482c-.738.765-1.663.978-2.757.624-1.34-.432-1.504-.24-1.83.145-.5.595-1.55 1.83-3.843.795-.642-.29-.68-.256-1.374.293-.75.6-1.885 1.5-3.9 1.337-1.693-.138-2.63 3.22-2.64 3.25l-.096.378-.267.283c-.056.058-.075.083-.063.194.052.504.557 1.22 1.232 1.957l.066-.01c0 .01.006.05.012.097a18.71 18.71 0 0 0 2.734 2.375l-1.714 2.462c-.17-.118-.48-.34-.862-.64a18.48 18.48 0 0 1-.174 1.88c-.108.726 1.8 2.515 4.118 3.97 5.263-8.944 11.616-11.855 16.02-12.722-2.224-3.42-3.79-5.66-4.664-6.666m-14.756-81.364c-.39-.47-2.43-.466-4.595-.456l-.982.002c-3.26 0-4.695.343-5.29.574 1.276 1.403 1.708 4.092 1.836 5.19.624.927 3.124 3.82 8.57 1.45.465-2.534 1.05-6.05.46-6.76m-3.313 84.308c.842-1.352 2.09-2.534 3.778-2.723 1.557-17.808-1.066-63.962-1.092-64.44l-.033-.565.35-.446c.97-1.233.663-4.14.19-6.26-.875.326-1.69.53-2.46.66-.062.855-.482 2.49-2 5.76-.23 6.038-7.48 55.6-8.85 64.92 3.38.75 6.82 1.76 10.118 3.094m-23.134-19.357c2.582.518 5.263 1.143 8.055 1.915l-.8 2.89c-9.86-2.724-18.417-3.658-25.468-3.69-.743 4.05-2.357 14.11-1.506 20.898.266.253.538.506.812.757l7.75-8.63.626-.028a60.96 60.96 0 0 1 2.678-.05c3.768.002 11.028.25 18.904 1.794 1.398-9.53 8.787-60.093 8.817-64.753l.002-.22.093-.197c.842-1.8 1.71-4.014 1.89-4.958-3.12-.095-5.165-1.696-6.254-2.884-.167.18-.298.39-.396.632-.62 1.535.196 3.954.56 4.753l.165.356-.03.39c-1.114 14.473-12.84 43.62-15.9 51.024M279.9 363.697l.03-.787.666-.422c.545-.346.654-.678.69-.898.076-.484-.118-1.066-.367-1.568-3.59 1.974-7.234 2.97-9.907 3.473-2.036 2.76.747 6.478.877 6.65l.293.375-.11.464c-3.822 16.29-.155 54.57.76 63.34 3.92-1.462 9.16-2.766 16.024-3.315l.82-.066.496.656c.03.04 2.285 3.004 5.51 6.366-.327-6.648.956-14.822 1.66-18.693-12.966.262-20.28 3.538-20.395 3.59l-.632-1.36-.636-1.36c.36-.167 4.647-2.098 12.31-3.193-9.308-18.6-8.143-51.805-8.087-53.254m-2.087-9.957v2.536l-1.936-.587c-.09-.028-8.947-2.7-14.147-2.94-2.046-.093-2.888.335-3.202.586 2.68 1.818 7.183 5.997 8.908 7.626 1.78-.15 7.29-.847 12.465-3.822v-3.402h-2.086zm-10.993 83.45a33.212 33.212 0 0 1 4.078-2.09c-.825-7.67-4.74-46.69-.875-64.126-1.15-1.666-2.325-4.513-1.454-7.106-.392.045-.73.076-.99.096-.813.956-1.194 1.874-1.132 2.734.1 1.39 1.327 2.35 1.33 2.353l.794.59-.23.964c-6.392 26.64-2.732 57.947-1.517 66.585m-5.665 1.235c-.28-.562-.902-.653-1.06-.667-4.767.43-9.398 5.9-10.734 7.603.632 2.48 3.75 11.55 15.71 12.147l1.67.084-.67-2.544a10.33 10.33 0 0 0-.66 1.46l-2.83-1c.28-.786 1.133-2.927 2.543-4.066l-2.78-10.562.51-.597.04-.046c-.682-.425-1.343-1.01-1.74-1.807m-3.567 43.582c.956 1.494 2.848 4.28 4.646 6.43.043-.756.13-1.52.294-2.29.852-4 3.462-7.14 6.386-9.4-.88-1.215-1.9-3.116-1.693-5.214.106-1.068.583-2.54 2.165-3.88l-2.36-8.967-.794 1.163c-2.46 3.597-8.737 13.958-8.616 19.138.15.525.363 1.65-.03 3.018m-21.934 5.4c3.723 1.714 17.815 20.204 23.793 28.2l.23.307.056.378c.634 4.44 1.805 8.905 2.555 9.796 1.34.26 4.064.1 5.536-.074l.283-.033 10.01 2.654c-.57-1.973-.99-3.883-1.115-5.498l-.244-3.175 11.39 8.022 1.37-4.435-7.616-6.17 2.237-.995c2.747-1.22 6.758-8.738 8.87-13.65-.256-.394-.42-.693-.464-.866-.56-2.237-.538-15.967 2.117-21.012a105.02 105.02 0 0 1-7.477-.004l.13-2.997c.074.002 3.783.154 8.256-.04.734-5.226.533-16.043.403-23.05-.09-4.913-.163-8.794.015-10.423l.053-.48.644-.716c-3.966-3.63-7.182-7.544-8.392-9.076-14.326 1.3-20.828 6.072-22.62 7.65l7.155 27.205-.91.59c-1.058.685-1.615 1.44-1.703 2.306-.117 1.14.567 2.38 1.197 3.24 2.866-1.688 5.652-2.556 7.09-2.556v3c-2.03 0-11.43 3.756-13.034 11.27-1.574 7.385 4.386 14.822 4.446 14.896l.674.83-.56.906c-2.8 4.54-4.524 16.44-4.54 16.56l-2.97-.425c.068-.484 1.638-11.327 4.448-16.803-1.125-1.575-3.432-5.22-4.36-9.656-2.33-1.875-5.207-5.94-6.73-8.222-2.134 2.19-5.956 3.703-11.407 4.502l-.434-2.97c7.304-1.07 9.606-3.23 10.328-4.425.71-1.173.383-2.142.38-2.153l-.093-.23-.012-.248c-.304-5.574 5.135-14.92 7.762-19.086-9.64-1.46-13.675-8.16-15.235-12.093-11.99 15.99-13.088 36.88-11.502 39.248m66.38 26.433l-6.282 16.52 1.54 1.465a5.878 5.878 0 0 0-.034-.88l2.978-.372c.295 2.363-.456 4.685-1.266 6.404 2.79-.3 5.71-.468 8.778-.468 3.964 0 7.713.32 11.266.893v-4.32c-5-5.575-11.61-13.006-16.977-19.24m-6.763 23.616c.31-.476.79-1.28 1.21-2.263l-4.244-4.04 7.574-19.91c-1.874-2.207-3.51-4.177-4.754-5.748-1.558 3.393-4.625 9.46-7.824 12.346l5.742 4.653-4.3 13.95-2.866-.883 1.406-4.562-6.622-4.665c1.216 4.89 3.842 10.897 4.967 13.366a68.86 68.86 0 0 1 9.71-2.246M395.668 700C375.5 746 345 740.5 338.5 737.5c0 0-6 17.5-39 14s-78-41-86-92l5 2.5s-12.5-55 31-104.5c0 0-.908 5.455-1.75 14.617 1.8-3.52 4.178-7.46 7.29-11.418 5.65-7.193 14.49-15.28 27.664-20.048-.835-1.838-2.268-5.132-3.495-8.63l-11.325-3c-1.08.113-4.546.422-6.5-.068-.73-.182-2.93-.732-4.566-11.862-9.416-12.575-20.27-26.01-22.26-26.91-.914-.28-1.578-1.106-1.976-2.455-1.762-5.976.874-28.02 13.98-43.647.467-.648 6.467-8.788 13.384-9.325l.116-.005c.945 0 2.754.476 3.697 2.203-1.303-9.564-4.62-39.912 1.46-66.198-.695-.742-1.62-2.04-1.763-3.8-.12-1.475.346-2.927 1.367-4.332-3.012-2.814-7.342-6.638-8.716-7.253l-.774-.346-.103-.84c-.085-.702.12-1.852.98-2.782 1.028-1.107 2.697-1.666 4.97-1.666.225 0 .453.006.688.016 4.07.187 9.934 1.674 12.946 2.507v-1.525h8.086v6.765c.588.833 1.644 2.637 1.35 4.54-.108.7-.44 1.644-1.37 2.47-.12 5.034-.457 35.795 8.298 52.05a79.16 79.16 0 0 1 7.63-.362c4.627 0 9.9.382 15.77 1.38 2.515-6.08 14.623-35.934 15.894-50.33-.446-1.104-1.488-4.178-.46-6.742a5.01 5.01 0 0 1 1.916-2.334c-.196-1.14-.56-2.43-.99-2.86-1.352-1.353-1.04-2.605-.843-3.08.725-1.75 3.228-2.496 8.368-2.496l.973-.002.813-.002c3.02 0 4.905.11 6.095 1.538 1.37 1.643 1.083 4.353.108 9.636.462 1.525 1.816 6.692-.017 9.765.294 5.245 2.45 45.1 1.16 63.036.856-.613 2.076-1.19 4.003-.322.1.046.18.077.24.097l.077-.09c.9-1.068 2.108-1.937 4.868-1.123.235-.378.762-1.18 1.818-1.188h.024c1.384 0 2.454.88 8.186 9.803h.01c1.127 0 1.834.122 1.952.144l.794.15.31.743c.074.17 7.264 17.225 12.628 25.515 4.606 7.12 7.76 14.662-.282 21.578-3.718 3.197-12.273 16.982-18.52 27.047-5.244 8.45-7.16 11.465-8.058 12.14-3.024 2.268-13.055 1.553-13.155 1.545-1.31-.122-4.752 1.908-7.447 3.988-.105 3.55-.75 6.33-1.204 7.89 13.347 5.612 22.834 14.924 29.13 23.22 3.743 4.93 6.656 9.832 8.868 14.137-.896-5.906-2.137-11.566-3.842-16.48 0 0 23 27 27 59 0 0 1.5-16 0-26.5 0 0 20.834 59 .667 105" fill="#4d4d4d"/><path d="M282.153 601.325a4.217 4.217 0 1 0 1.362 6.875c-.09.382-.214.752-.354 1.112 4.22-1.972 8.036-5.016 10.84-9.562 0 0-4.5 18.5-31.75 16.5 0 0-1.5-.75-2.5 4 0 0-.25-3 1-4.75 0 0-4.75-2.25-8.5 4.75 0 0 0-9 10.25-8 2.226.218 4.628.304 7.1.188a8.404 8.404 0 0 1-2.717-6.188 8.434 8.434 0 0 1 8.434-8.434 8.414 8.414 0 0 1 6.837 3.51m77.464 30.14c-20.382 11.218-36.368-3.716-36.368-3.716v-3.5c10.5 10.75 36.368 7.217 36.368 7.217M355 616.5c1.25 1.75 1 4.75 1 4.75-1-4.75-2.5-4-2.5-4-27.25 2-31.75-16.5-31.75-16.5 2.803 4.542 6.616 7.586 10.83 9.558a8.416 8.416 0 0 1-.58-3.058 8.433 8.433 0 0 1 8.434-8.434c3.68 0 6.8 2.36 7.953 5.648a4.187 4.187 0 0 0-3.17-1.464 4.218 4.218 0 0 0 0 8.434c1.296 0 2.44-.597 3.214-1.516a8.434 8.434 0 0 1-2.297 3.52c2.478.117 4.887.03 7.118-.188 10.25-1 10.25 8 10.25 8-3.75-7-8.5-4.75-8.5-4.75M304.12 573c-1.16 2.026 0 11 0 11-6.08-6.08 0-11 0-11m3.868-18.5c-11.464 0-15.592 5.817-16.947 8.76.74-.115 1.48-.22 2.22-.308 5.2-.635 10.395-.725 15.598-.642 5.2.168 10.43.56 15.574 1.723.42.094.835.204 1.252.31-1.732-3.414-6.482-9.843-17.694-9.843m27.474 16.69c-.148-.574-.508-1.06-.945-1.46-.886-.8-2.016-1.336-3.178-1.75-2.33-.85-4.833-1.28-7.33-1.645-2.51-.313-5.036-.584-7.58-.71-2.54-.168-5.092-.277-7.648-.318-2.554-.093-5.118-.107-7.677-.117-2.56-.04-5.114.026-7.662.086-2.543.106-5.09.23-7.58.63-1.242.19-2.476.46-3.612.924-.56.237-1.104.538-1.49.982-.397.42-.55 1.104-.227 1.688-.454-.48-.51-1.316-.146-1.94.352-.625.908-1.076 1.47-1.456 1.144-.75 2.412-1.21 3.67-1.623.69-.206 1.38-.386 2.077-.55.61-2.04 4.504-12.43 20.384-12.43 16.595 0 20.987 12.637 21.415 14.015.862.33 1.716.69 2.545 1.124 1.17.655 2.344 1.414 3.194 2.54.414.56.738 1.236.77 1.947.034.714-.25 1.378-.66 1.874.288-.582.38-1.24.212-1.81m-27.822-22.915c-1.482-.07-2.957-.07-4.436.07-1.476.154-2.955.38-4.46.905 1.067-1.234 2.612-1.972 4.163-2.43 1.57-.457 3.214-.62 4.83-.542 1.62.07 3.21.39 4.727.882 1.52.49 2.972 1.165 4.284 2.09-1.597-.143-3.12-.378-4.626-.568a59.617 59.617 0 0 0-4.478-.407m-7.396-58.025c-1.103 0-2 .897-2 2s.897 2 2 2 2-.897 2-2-.897-2-2-2m0 6c-2.206 0-4-1.794-4-4s1.794-4 4-4 4 1.794 4 4-1.794 4-4 4" fill="#4d4d4d"/><path d="M232.5 349.5h142.25v-75H504.5v-64H105.75V291H232.5v58.5z" fill="#fff"/><path d="M232.5 349.5h142.25v-75H504.5v-64H105.75V291H232.5v58.5z" fill="none" stroke="#4d4d4d" stroke-width="3" stroke-miterlimit="10"/></g><text transform="matrix(1.25 0 0 1.25 212.91 662.424)"><tspan x="0" y="0" style="-inkscape-font-specification:Impact" font-size="137.604" font-weight="400" fill="#4d4d4d" font-family="Impact">1</tspan></text><text transform="matrix(1.25 0 0 1.25 59.16 661.185)"><tspan x="0" y="0" style="-inkscape-font-specification:Impact" font-size="68" font-weight="400" fill="#4d4d4d" font-family="Impact">2</tspan></text><text transform="matrix(1.25 0 0 1.25 409.16 667.796)"><tspan x="0" y="0" style="-inkscape-font-specification:Impact" font-size="52" font-weight="400" fill="#4d4d4d" font-family="Impact">3</tspan></text></svg>