<svg xmlns="http://www.w3.org/2000/svg" width="715.549" height="659.323"><defs><clipPath id="a"><path d="M0 792h612V0H0v792z"/></clipPath><clipPath id="b"><path d="M0 792h612V0H0v792z"/></clipPath></defs><g clip-path="url(#a)" transform="matrix(1.25 0 0 -1.25 -26.83 943.56)"><path d="M206.333 605.333s3.666-52.333-32.667-79c0 0 11.667 20.667 13.334 43.333 0 0-10-40-61.334-71 0 0-6.333-44.333 11.667-71.333 0 0-15.667 4.333-24.667 15.333 0 0 5-14.333 14.667-24.666 0 0-30.334 7.333-46.667 24.666 0 0 2.334-7.333-4.333-20 0 0 4.705 17.378-27.667 56.334-19.098 22.982-27.666 59-26 85.333C26.598 626.467 91 675.666 141 666.666c0 0 56.74 14.54 98.666-35.666 27-32.334 21.667-83.667 32.667-90.667l-10 5S267.666 493 255 467.666c0 0 1 4.334.333 9.667 0 0 3.667 14.667-3.333 32s-4.667 49.333-17.334 71c0 0 .667-7.667-3.666-26 0 0-1.667 33-24.667 51" fill="#4d4d4d"/><path d="M257.96 482.166s-5.626-34.5-52.293-43.167c-46.666-8.667-75.333 6-98.333 16m79.166-2s16.25 20.5 43.25 8.5" fill="none" stroke="#4d4d4d" stroke-width="3" stroke-miterlimit="10"/><path d="M206.75 465.268s-9 11.232-18.25 5.482c-9.25-5.75 0-15.627 0-15.627" fill="none" stroke="#4d4d4d" stroke-width="3" stroke-miterlimit="10"/><path d="M192.25 465.268s.89-.626 3.32-4.822" fill="none" stroke="#4d4d4d" stroke-width="2" stroke-miterlimit="10"/><path d="M223.25 495s8.25-1.5 6.5-11.25" fill="none" stroke="#4d4d4d" stroke-width="3" stroke-miterlimit="10"/><path d="M193.91 508.5s-20.41 14.5-43.16-3c0 0-6.5-.75-12.75 5.75 0 0 6.75-4.137 14.25-1.443 0 0-7 .693-12.25 6.943s-.25 1.25-.25 1.25 9.5-6.25 16.75-4.25 23.82 8.5 37.41-5.25" fill="#4d4d4d"/><path d="M193.91 508.5s-20.41 14.5-43.16-3c0 0-6.5-.75-12.75 5.75 0 0 6.75-4.137 14.25-1.443 0 0-7 .693-12.25 6.943s-.25 1.25-.25 1.25 9.5-6.25 16.75-4.25 23.82 8.5 37.41-5.25z" fill="none" stroke="#4d4d4d" stroke-width="2" stroke-miterlimit="10"/><path d="M143.25 531s27.027 9.25 41.14 3.5c0 0-6.14 14.75-41.14-3.5M217 554.5s11.277 15.077 24.39 9.29c0 0-16.39 10.877-24.39-9.29m9.622-37.667s-4.29 15.667 13.044 28.333c0 0 1.61 1.834 1.723 8 0 0 2.276-5 .942-7.666 0 0 4.5.5 7 3.666 0 0-.386-4.823-7.944-7 0 0-10.98-5.166-14.768-25.333" fill="#4d4d4d"/><path d="M226.622 516.833s-4.29 15.667 13.044 28.333c0 0 1.61 1.834 1.723 8 0 0 2.276-5 .942-7.666 0 0 4.5.5 7 3.666 0 0-.386-4.823-7.944-7 0 0-10.98-5.166-14.768-25.333z" fill="none" stroke="#4d4d4d" stroke-width="2" stroke-miterlimit="10"/><path d="M419.013 571.48s19.124 22.544 50.257 9.155c0 0 7.657 1.038 12.913 10.3 0 0-6.518-6.703-15.886-5.808l11.99 11.517-.95 1.596c-3.423-2.566-11.2-9.956-17.053-9.84-8.877.173-29.732 2.777-41.27-16.92" fill="#4d4d4d"/><path d="M419.013 571.48s19.124 22.544 50.257 9.155c0 0 7.657 1.038 12.913 10.3 0 0-6.518-6.703-15.886-5.808l11.99 11.517-.95 1.596c-3.423-2.566-11.2-9.956-17.053-9.84-8.877.173-29.732 2.777-41.27-16.92z" fill="none" stroke="#4d4d4d" stroke-width="2" stroke-miterlimit="10"/><path d="M381.835 578.4s2.184 17.626-18.56 28.615c0 0-2.03 1.73-3.12 8.387 0 0-1.68-5.767.18-8.444 0 0-4.947-.165-8.147 2.87 0 0 1.172-5.16 9.694-6.33 0 0 12.69-3.87 19.953-25.098" fill="#4d4d4d"/><path d="M381.835 578.4s2.184 17.626-18.56 28.615c0 0-2.03 1.73-3.12 8.387 0 0-1.68-5.767.18-8.444 0 0-4.947-.165-8.147 2.87 0 0 1.172-5.16 9.694-6.33 0 0 12.69-3.87 19.953-25.098z" fill="none" stroke="#4d4d4d" stroke-width="2" stroke-miterlimit="10"/><path d="M186.667 499.807a4.666 4.666 0 0 0 0 9.334c1.41 0 2.66-.637 3.515-1.626-1.477 3.33-4.806 5.654-8.682 5.654a9.5 9.5 0 0 1 0-19c4.887 0 8.907 3.69 9.437 8.435a4.663 4.663 0 0 0-4.27-2.795m56.21 23.5c-1.773 0-3.21 2.09-3.21 4.666 0 2.578 1.437 4.667 3.21 4.667.347 0 .674-.1.987-.246-1.118 1.41-2.585 2.274-4.198 2.274-3.498 0-6.333-4.03-6.333-9s2.835-9 6.333-9 6.334 4.03 6.334 9c0 .35-.018.696-.046 1.037-.382-1.956-1.607-3.397-3.076-3.397" fill="#4d4d4d"/><path d="M241.39 334.75C235.027 349 249.333 373 249.333 373l4.166-2.25c.75 1.75-1.5 5-1.5 5-19 3.5-68.25 38-91.75 51.75s-31.5-1.25-31.5-1.25-10-13.5 5.75-27 42.332-28.75 52.166-36.75c9.833-8 50.34-36.25 56.212-30.5 5.87 5.75 3.12 3.25 3.12 3.25" fill="none" stroke="#4d4d4d" stroke-width="3" stroke-miterlimit="10"/><path d="M253.5 370.75s12.75-4.75 17.75-4.5 4-10.25 7-10.75l-1.75-8.25-8.25 9s12.75-20.5 19.25-14.75l2.5-1.018s.75-13.732-4.5-11.732-11.75 7-11.75 7m5.954-4.516s-2.37-6.88-7.37-2.684c0 0-1.62-4.595-4.12-3.095 0 0-1.214-2.545-6.214-.125s-17.33 12.165-22.218 16.915m-61.41 74.055l17.198-4.8s-3.81 17.598-1.66 21.803m2.766 4.28L201.5 418l15.5-4s-3.64-8.737-3.57-19.62m-5.305 21.91s-1.18 10.086 1.473 23.523m2.902-23.523s8 19.086 12.25 23.523" fill="none" stroke="#4d4d4d" stroke-width="3" stroke-miterlimit="10"/><path d="M227.58 446.085S237.507 430 242.878 427c0 0-18.664-2.453-29.146-7.852M133.39 430.85s3.165 5.075 1.512 12.862M169.5 365s2.852-13.945 27.176-9.973" fill="none" stroke="#4d4d4d" stroke-width="3" stroke-miterlimit="10"/><path d="M127.065 408.918S128.75 390.25 143.25 374c14.5-16.25 15.75-17.25 16.75-22s-10.75-23.25-9.25-35.25c0 0 29.5-26.5 83.75-9.25" fill="none" stroke="#4d4d4d" stroke-width="3" stroke-miterlimit="10"/><path d="M224.75 337.206l9.75-31.956s18.417 11 23.458 21.5m-10.592 50.246s8.884 6.254-3.366 21.754c-12.25 15.5 5.182 50.638 8.09 69.194" fill="none" stroke="#4d4d4d" stroke-width="3" stroke-miterlimit="10"/><path d="M238.555 325.735c.677-2.478-.142-4.86-1.83-5.32-1.686-.462-3.603 1.173-4.28 3.65-.677 2.478.142 4.86 1.83 5.32 1.686.462 3.603-1.172 4.28-3.65z" fill="none" stroke="#4d4d4d" stroke-width="2" stroke-miterlimit="10"/><path d="M154.66 313.862S151 288.75 167 278.5c16-10.25 24.334-31.25 24.334-31.25m-8.246 14.948s-3.31-3.948 1.3-11.948" fill="none" stroke="#4d4d4d" stroke-width="3" stroke-miterlimit="10"/><path d="M174.753 272.24S163 275.5 158.25 273.5c-4.75-2-11.5-13.5-1.25-19.5s13.277-3.5 27.39-10.25c14.11-6.75 13.823-10.25 29.34-9.75 15.518.5 5.018 34.25 6.018 42.25s28 16.332 33.75 25.416m-88.878 6.856s-1.62-6.772 2.13-13.272c0 0 7.5-3.25 19.75 7.25" fill="none" stroke="#4d4d4d" stroke-width="3" stroke-miterlimit="10"/><path d="M206.75 301.65s5.984-43.104 9-54.4c3.016-11.297-2.874-13.464-6.152-13.282M158.25 273.5s-12.5 5-13.75-4.5 3.25-8.3 4-12.775-1.75-17.725 11.75-17.475.172 4.418 1.46 12.834m75.015 55.07s1.225-10.654 0-17.154m3.057 1.802s32.542-3.15 50.255 6.774" fill="none" stroke="#4d4d4d" stroke-width="3" stroke-miterlimit="10"/><path d="M271.77 327.317s28.73-5.646 34.23-6.98c5.5-1.337 6.75-3.837-2.5-30.837s-11-31.05-10.25-33.276c0 0 3.5-1.474-.5-3.974S276.25 248 273.5 246c0 0-7.462 7-1.73 12.5 0 0-5.692 23.595 2.77 34.297" fill="none" stroke="#4d4d4d" stroke-width="3" stroke-miterlimit="10"/><path d="M256.937 324.9S304.25 318.75 306 316s-17.722-50.59-17.5-58c0 0 4.74-.817 3.245-6.284" fill="none" stroke="#4d4d4d" stroke-width="3" stroke-miterlimit="10"/><path d="M292.75 252.25s13-9.25 21-9.5c0 0 3.5-3.758 0-4.004-3.5-.246-26 0-26 0l-5 3.504v-3.75s-6.5-.5-8.25 1-1.5 4.25-1 6.5M262 510.14s28 93.36 31.25 100.61c0 0 2.75 24.5-15.625 26.25s-23.972-15.5-23.972-15.5l-2.903-13.25" fill="none" stroke="#4d4d4d" stroke-width="3" stroke-miterlimit="10"/><path d="M293.396 616.75s.854 4.25 2.354 5.75 3.25-1.5 13.5 3.75 11 2.75 13.25 4 3.75 6.75 0 8.25-11.25 3.5-11.75 6.5 5.25 7.75 5.25 7.75" fill="none" stroke="#4d4d4d" stroke-width="3" stroke-miterlimit="10"/><path d="M310.75 645h11.5s-3.5 14.5-10 16-6.25-3-6.25-3-5.75 4-10.75-2.75c0 0-3.75 2.807-7.5-2.097 0 0-3.25 5.346-18.75-17.028m81-28.625s108.75 7.75 122 82c0 0-18.25-92 22.75-106.75" fill="none" stroke="#4d4d4d" stroke-width="3" stroke-miterlimit="10"/><path d="M491.5 675.75s8.25-143.5-4.75-197.75c0 0 9.25 21.333 12 35.167 0 0-4.27-28.24-7.058-35.646a9.452 9.452 0 0 0-.442-1.02c-2.75-5.25 63.5 115.25 34.5 238M350.81 607.568s59.94 19.683 95.44 72.933c0 0-72.128-26.5-95.44-71" fill="none" stroke="#4d4d4d" stroke-width="3" stroke-miterlimit="10"/><path d="M493.155 535.565C456.31 505.13 411 507.25 380.25 519.895c-30.75 12.64-36.5 45.105-31.75 55.855S352 589 352 589c-5.75 34.5 8.5 85 8.5 85s21.4 79.315 113.834 65.667M376 543.312s13-24.682 55.75-7.747m-43 22.435s-5.5-1.25-2.5-10.5" fill="none" stroke="#4d4d4d" stroke-width="3" stroke-miterlimit="10"/><path d="M446.25 568.688a4.945 4.945 0 0 0 0 9.89 4.9 4.9 0 0 0 2.494-.697 10.37 10.37 0 0 1-7.945 3.7c-5.744 0-10.4-4.654-10.4-10.396s4.656-10.396 10.398-10.396c5.74 0 10.395 4.654 10.395 10.396 0 .485-.045.96-.11 1.426a4.945 4.945 0 0 0-4.835-3.922m-73.224 11.124a4.275 4.275 0 0 0 0 8.548 4.267 4.267 0 0 0 3.568-1.927c-.74 4.382-4.06 7.69-8.048 7.69-4.533 0-8.207-4.27-8.207-9.54 0-5.268 3.674-9.54 8.207-9.54 3.537 0 6.542 2.607 7.695 6.253a4.25 4.25 0 0 0-3.217-1.484" fill="#4d4d4d"/><path d="M360.338 534.667S366 505 371.334 487.334c0 0-9.667 14.614-12.667 22.807 0 0-1.325-4.472 1.67-15.972 0 0-43.337 111.5-15.337 184.5 28 73 108 81 144.334 71.333 0 0 47.332.668 65.666-40.665 18.334-41.334 5.334-90.278-5.333-124.473" fill="none" stroke="#4d4d4d" stroke-width="3" stroke-miterlimit="10"/><path d="M356.71 658.183s73.692 51.483 125.473 58.29c0 0-43.517 4.86-121.683-42.473m9.67 21.23s46.996 40.77 124.58 27.103m36.265-37.625s14.124-25.975 32.722-11.008M533.11 663s18.147-12.326 31.02 3.337m-31.02-38.004s20.147.43 31.02 20.382m-32.607-31.965s23.455 4.5 30.633 19.375m-31.96-31.107s17.973 3.152 29.722 18.4m-32.432-36.053s26.085 20.768 21.133-8.965c-4.954-29.734-32.42-38.27-32.42-38.27" fill="none" stroke="#4d4d4d" stroke-width="3" stroke-miterlimit="10"/><path d="M525.104 575.044s17.564 16.09 16.23 3.356C540 565.667 529 558 529 558m26.56 47.018s1.453-47.685-8.72-66.352c0 0 17.16 34 19.494 71.334 0 0-6-44.213 13.333-90.107l-2.333 27.607S579.666 536.666 591 531c0 0-14.666 24.666-10.333 80.666S594.667 669 591 689.5c-3.666 20.5-19.32 41.583-44.16 33.54" fill="none" stroke="#4d4d4d" stroke-width="3" stroke-miterlimit="10"/><path d="M558.255 700.974S587.333 715.667 577 630c0 0 4.066 61.507-16.634 63.92m-82.7-24.867s-3.69-62.585 15.49-72.152m-89.966-83.733S451.75 475 476.25 456.5c0 0 9.804 35.636-6 47.167m5.8 19.89s-10.133-19.417-7.633-34.167m-34.81-.015s37.3-15.625 44.72 0M290.037 531s2.963-1.417 4.463-5.333c1.5-3.917 3.5-14.84 9.25-14.503 5.75.336 2.5 18.526-3.5 25.306 0 0 8.68-8.97 8.84-17.72.16-8.75 1.91-10.25 4.91-10.25s9.25 8.333-2.25 31.63l6.66-12.13s-.092-17.422 6.374-16.836c6.466.586 3.966 19.086 3.466 21.086s-5.25 11.75-8 13c0 0 7-.5 10-4 0 0 1.5-14.75 6.25-14.375s5.5 4.498 3 16.437c0 0-.25 12.688-12 11.188s-19.75-7-19.75-7-23.25-1.992-22.25-17.87c0 0-.25-13.22 10.5-12.797" fill="none" stroke="#4d4d4d" stroke-width="3" stroke-miterlimit="10"/><path d="M340.902 531s7.65-.636 6.124-7.443c-1.526-6.807-14.028.307-17.902 0M295.75 500.75s40.55-12.146 33.374 20.28" fill="none" stroke="#4d4d4d" stroke-width="3" stroke-miterlimit="10"/><path d="M288.5 540.13s-27-20.336-1-41.608c0 0 19.852-12.94 50.676-4.355m-1.426 26.863s3.25-22.28 0-31.655" fill="none" stroke="#4d4d4d" stroke-width="3" stroke-miterlimit="10"/><path d="M329.976 492.322l5.604-6.42s18.92 3.267 43.92-9.568m-38.598 62.416s3.65-1 6.124 0M376 521.845s11-2.94 16-16.642" fill="none" stroke="#4d4d4d" stroke-width="3" stroke-miterlimit="10"/><path d="M373.44 479.19s9.12-24.69 25.09-52.19c0 0-4.03-1.31-3.28-4.53C396 419.25 381.5 402 376 393c0 0 54.75-51.75 118.75-30.25 0 0 11 26 5.25 58.5 0 0 17.903 5.5 16.202 20.75-1.7 15.25-17.2 20.29-21.45 32.75m-24.002 31.724s18.748-4.34 19.75-6.032" fill="none" stroke="#4d4d4d" stroke-width="3" stroke-miterlimit="10"/><path d="M500.554 496.545s8.696-6.626 11.446-20.21c2.75-13.585 12.5-24.335 15-27.585 0 0 .38-3.516-10.684-12.383M474.5 449.25s3.52-23.25-24.615-26c-28.135-2.75-30.872 7.75-30.872 7.75m88.545-5.948s11.696.245 19.444-5.904" fill="none" stroke="#4d4d4d" stroke-width="3" stroke-miterlimit="10"/><path d="M524.22 443.774s15.28-20.058 15.28-27.79c0-7.734-31.942-29.734-31.942-29.734s-1.558-9.258-3.808-9.254l-3.196 9.022m3.196-9.022s2.365-7.746 3.808-13.996c0 0 1.55-.25 2.372-2" fill="none" stroke="#4d4d4d" stroke-width="3" stroke-miterlimit="10"/><path d="M506.84 365.947s2.965 8.803 6.938 7.303c3.972-1.5-.66-12.75-3.47-17-2.808-4.25-6.558-1.935-6.558-1.935s-4.25 6.185-5.5 6.685m5.5-6.685s-3.87-4.38-10.12-.63M376 393s-17-17.25-14-54-9-47-10.75-55.5-4.25-25.5-2.5-36.25c0 0-4.5-6.75 3-11.75 0 0 7.25 11.42 20.5 9.835 0 0 14 60.345 42.25 84.13 0 0 56.906 11.535 63.828 16.285" fill="none" stroke="#4d4d4d" stroke-width="3" stroke-miterlimit="10"/><path d="M385.4 385.365s-16.65-19.453-14.4-48.16c2.25-28.705-12.25-46.378-12.25-46.378S350 270.75 353 249c0 0-4.524-5.45 1.738-9.976m19.338 124.53s14.62-4.886 37.52 6.155m39.807-32.1s8.597 5.683 8.097 19.91" fill="none" stroke="#4d4d4d" stroke-width="3" stroke-miterlimit="10"/><path d="M441.224 335.232S460 293 460.75 282s5.782-34.5 13.89-41.5c0 0-2.292-4.332 1.41-6.54 0 0 13.95 6.29 16.2 9.29 0 0 1.998 2.75-1.75 6-3.75 3.25 1.25 95.75 4.25 113.5" fill="none" stroke="#4d4d4d" stroke-width="3" stroke-miterlimit="10"/><path d="M458.412 339.344S466.5 293.75 470 285c0 0 3.762-33.25 9.256-41.5 0 0-1.32-4.394 1.213-7.447m-128.72-.553l2.988-1.547S353 229.5 371.5 230c18.5.5 9.25 13.42.75 15.335-8.5 1.915-17.4-8.024-17.512-11.382" fill="none" stroke="#4d4d4d" stroke-width="3" stroke-miterlimit="10"/><path d="M492.25 243.25s.75-4.25 12.5-4.83c11.75-.58 11.565-9.42 11.565-9.42s-26.815-.25-35.846 0c-9.034.25-3.47 4.953-3.47 4.953m26.75 4.467s-8.88-.143-7.94-9.53m-9.06 9.53l9.725-4.46M307.808 491.882A1485034.8 1485034.8 0 0 1 287.5 341.5M322.25 645s5.75-4.417 5.084-8.875c-.232-1.557-5.154-37.91-11.464-84.583m-13.346-4.957l10.338 81.375M278.25 355.5l17.684 139.2" fill="none" stroke="#4d4d4d" stroke-width="3" stroke-miterlimit="10"/><path d="M281.524 349.65h5.976M283.19 361h5.976m-4.31 11.35h5.977m-4.31 11.35h5.976m-4.31 11.35h5.976m-4.31 11.348h5.976m-4.31 11.35h5.977m-4.31 11.35h5.976m-4.31 11.35h5.976m-4.31 11.35h5.976m-4.308 11.35h5.975m-4.31 11.348h5.977m-4.31 11.35h5.976m2.022 68.097h5.975m-4.31 11.35h5.975m-4.308 11.35h5.975m-4.31 11.35h5.976m-4.31 11.35h5.976m-4.31 11.347h5.975m-4.31 11.35h5.976m100.01-7.822s17.5 11.835 38 1.184c0 0-20.75 20.034-38-1.184zm-57.035 18.76s7.342 1.21 13.813-10.634m-8.838 14.78s10.345-4.65 11.915-13.705" fill="none" stroke="#4d4d4d" stroke-width="2" stroke-miterlimit="10"/></g><g clip-path="url(#b)" transform="matrix(1.25 0 0 -1.25 -26.83 943.56)" fill="#4d4d4d"><path d="M184.94 464.924c.242 1.81 1.338 3.3 3.353 4.552 6.3 3.918 12.57-1.27 15.113-3.853a37.306 37.306 0 0 1-8.698-3.45c-1.84 3.025-2.66 3.755-2.88 3.913l-1.193-1.605c.03-.025.7-.61 2.345-3.312a40.58 40.58 0 0 1-5.3-3.89c-1.207 1.615-3.13 4.712-2.74 7.647m-.615-10.992l2.35-1.863c.156.194 15.823 19.457 41.465 8.06l1.22 2.74c-8.596 3.82-16.17 4.432-22.538 3.455-3.463 4.248-11.978 10.758-20.114 5.7-2.79-1.735-4.386-3.995-4.744-6.717-.55-4.17 2.058-8.212 3.517-10.103a21.49 21.49 0 0 1-1.155-1.273m42.948 30.083l2.953-.53c1.99 11.094-7.61 12.973-7.708 12.99l-.537-2.95c.28-.05 6.763-1.327 5.294-9.51m11.392 32.652c3.498 0 6.334 4.03 6.334 9 0 .35-.018.696-.045 1.037-.383-1.956-1.607-3.397-3.076-3.397-1.777 0-3.215 2.09-3.215 4.667 0 2.578 1.438 4.667 3.213 4.667.345 0 .672-.1.984-.245-1.118 1.41-2.585 2.273-4.198 2.273-3.498 0-6.333-4.03-6.333-9s2.836-9 6.334-9m-3.202-195.288c-.993-.278-2.48.86-3.052 2.95-.27.99-.268 2.022.01 2.827.135.396.46 1.085 1.118 1.265.103.028.21.043.32.043.94 0 2.22-1.12 2.732-2.993.513-1.876-.015-3.79-1.128-4.093m-1.604 9.084c-.288 0-.572-.038-.847-.113-1.127-.31-2.032-1.235-2.482-2.543-.41-1.194-.426-2.616-.046-4.006.72-2.63 2.636-4.465 4.663-4.465.287 0 .57.038.846.113 2.254.616 3.366 3.492 2.53 6.55-.72 2.628-2.636 4.465-4.66 4.465M430.196 536.96c-40.87-16.192-53.36 6.1-53.872 7.055l-1.325-.703-1.327-.7c.142-.27 3.586-6.662 12.53-10.88 4.094-1.93 9.79-3.57 17.334-3.57 7.4 0 16.58 1.578 27.765 6.01l-1.105 2.788zm-43.52 11.003c-1.004 3.097-1.09 5.554-.248 7.105.64 1.185 1.637 1.464 1.68 1.476l-.36 1.456-.333 1.463c-.228-.052-2.268-.573-3.562-2.85-1.326-2.332-1.337-5.554-.033-9.576l2.854.926zm53.123 12.823c5.74 0 10.395 4.655 10.395 10.396 0 .485-.044.96-.11 1.426a4.945 4.945 0 1 0-4.835 5.97 4.89 4.89 0 0 0 2.494-.698 10.37 10.37 0 0 1-7.945 3.7c-5.744 0-10.398-4.656-10.398-10.398 0-5.74 4.654-10.396 10.396-10.396"/><path d="M577.8 547.815l-2.96-.442 1.443-17.085c-10.894 31.314-10.743 60.59-10.006 73.113.23 2.157.42 4.327.554 6.507l-2.98.295c-.015-.1-.317-2.43-.558-6.5-1.628-15.15-5.5-29.503-9.306-40.793 2.665 19.23 2.134 40.13 2.08 42.06 3.644 13.77 6.59 27.985 7.895 42.183.16.284.33.557.488.847l-.4.217c1.273 14.753.746 29.47-2.618 43.638 13.63-5.537 14.12-45.87 13.073-61.754l2.986-.277c4.817 39.946 1.896 63.96-8.68 71.378-4.21 2.953-8.425 2.36-10.64 1.71a100.083 100.083 0 0 1-2.8 7.034 66.786 66.786 0 0 1-7.05 12.26c7.913 2.09 15.19 1.194 21.66-2.688 9.07-5.442 16.176-17.043 18.543-30.277 1.727-9.663.422-14.827-1.95-24.2-2.457-9.714-6.17-24.39-8.402-53.254-3.3-42.63 4.23-67.107 8.246-76.754-6.916 5.418-8.598 12.704-8.616 12.787m-28.88 42.98c-.667 1.883-1.733 3.257-3.214 4.128-4.998 2.94-12.846-1.346-17.166-4.23a386.078 386.078 0 0 1 1.952 13.056c3.6.818 15.694 4.195 25.686 14.27-2.078-9.25-4.587-18.372-7.258-27.224m-2.778-12.154c-3.818-22.927-21.704-32.933-28.63-35.994a415.106 415.106 0 0 1 7.934 31.577c4.855 4.375 11.073 8.372 12.866 7.47.505-.257.71-1.46.532-3.145-1.243-11.873-11.597-19.254-11.7-19.327l1.716-2.46c.472.328 11.58 8.21 12.968 21.473.333 3.18-.396 5.243-2.167 6.136-3.343 1.688-9.264-2.215-13.247-5.39a402.6 402.6 0 0 1 1.403 7.507c3.353 2.566 12.29 8.246 16.37 5.848 2.523-1.485 3.2-6.22 1.955-13.696m-36.61-102.61c2.515-12.42 10.71-22.537 14.21-26.858l.664-.824c-.33-.95-1.74-3.738-7.595-8.794.02.838-.016 1.706-.116 2.606-1.016 9.1-6.57 14.678-11.94 20.074-4.03 4.048-7.836 7.87-9.583 12.994l-2.84-.97c1.973-5.777 6.204-10.03 10.298-14.14 5.237-5.263 10.185-10.233 11.083-18.29 1.543-13.818-14.47-18.94-15.15-19.15l-1.267-.393.23-1.303c5.12-28.93-3.334-52.926-4.91-57.035-32.302-10.6-62.125-1.972-81.51 7.175-18.142 8.56-30.773 19.15-34.162 22.14 2.04 3.18 5.025 7.25 7.92 11.2 8.157 11.12 11.42 15.894 10.85 18.342-.425 1.83 2.18 2.727 2.285 2.762l1.766.574-.932 1.606c-12.292 21.167-20.58 40.856-23.653 48.548a95.72 95.72 0 0 0 2.64-1.3l1.372 2.67a102.42 102.42 0 0 1-5.104 2.438l-2.312 7.66c-3.827 12.683-7.87 31.797-9.8 41.333 4.807-4.415 10.43-8.01 16.71-10.593l.038-.015c3.393-2.066 8.08-6.147 10.874-13.802l2.82 1.028c-1.52 4.162-3.56 7.374-5.7 9.85a119.907 119.907 0 0 1 14.8-3.77c3.712-2.92 49.48-38.858 72.836-56.494l1.765-1.33.587 2.13c.41 1.494 9.862 36.677-6.5 48.726 7.343-1.724 15.51-3.978 17.7-5.07-.96-8.064-2.147-15.32-3.606-21.41l2.836-.945c.19.437 2.517 5.824 5.142 12.83-1.023-5.163-2.085-9.81-2.98-12.185a7.96 7.96 0 0 0-.367-.853c-.526-1.007-.098-1.648.204-1.94l1.783-.225c.12.07.31.312.552.698l.064-.032.054.108c.093.18.187.378.282.6 1.934 3.42 5.947 12.315 8.242 17.615 2.495-2.49 7.502-8.476 9.426-17.983M537 415.983c0-5.058-19.194-20.164-31.293-28.498l-.523-.36-.106-.626c-.42-2.497-1.12-5.054-1.76-6.62l-2.205 6.227c1.286 9.522 1.704 21.28-.423 34.163a34.5 34.5 0 0 1 6.257 3.28c1.96-.027 11.632-.425 18.123-5.577l1.865 2.35c-5.28 4.19-12.158 5.57-16.433 6.02 2.462 2.285 4.646 5.233 5.68 8.944l.072-.09c3.023 2.422 5.24 4.478 6.866 6.208 4.698-6.374 13.88-19.96 13.88-25.422m-25.68-44.198c.34.16.618.177.927.06.09-.033.28-.104.422-.548.896-2.773-2.18-10.54-4.613-14.22-1.64-2.482-3.55-1.947-4.28-1.61-2.03 2.933-4.635 6.39-5.97 6.925l-1.196-2.746c.59-.37 2.46-2.733 4.125-5.07-1.154-.75-3.394-1.59-6.533-.037.337 3.175.673 5.83 1 7.796.498 1.213 3.04 7.688 4.912 17.602l1.208-3.41c.1-.323 2.382-7.842 3.773-13.867l.257-.936.93-.2c.085-.02.84-.207 1.29-1.163l2.715 1.274c-.667 1.423-1.688 2.146-2.458 2.505-.136.57-.28 1.15-.426 1.733.76 2.055 2.356 5.173 3.916 5.91m-22.803-123.668c2.557-2.217 1.616-3.835 1.533-3.966-1.017-1.357-5.587-3.925-10.048-6.165-1.1 2.287-.317 5.056-.31 5.083l.204.674-.392.587c-5.23 7.855-8.976 40.51-9.014 40.84l-.022.2-.075.185c-3.07 7.67-9.888 45.067-11.26 52.69 9.15 2.368 16.704 4.66 19.044 6.267l-1.697 2.473c-2.278-1.563-10.903-4.053-21.324-6.658 2.32 3.13 4.786 8.256 4.838 15.772.64-.013 1.273-.036 1.916-.036a101.09 101.09 0 0 1 30.004 4.54c-1.413-10.48-3.205-35.167-4.32-59.976-2.234-49.777.06-51.765.923-52.514m8.265-10.237a8.424 8.424 0 0 1-1.304-1.18 8.453 8.453 0 0 1-.63-.804l-6.736 3.09c1.073.66 2.033 1.308 2.814 1.92.957-1.034 2.7-2.21 5.856-3.027m16.828-7.395c-3.15-.024-10.23-.076-17.36-.09.03 1.78.51 3.227 1.453 4.293 1.88 2.13 5.045 2.232 5.077 2.232v.056c.293-.02.588-.04.896-.054 7.365-.362 9.382-4.252 9.934-6.435m-34.1.015c-3.134.086-3.716.7-3.704.696-.01.3.578 1.11 1.163 1.61l-.233.277c1.89.872 5.3 2.49 8.515 4.254l-.128-.28 8.478-3.887c-.23-.857-.34-1.788-.35-2.78-5.483 0-10.67.026-13.742.11m-18.264 51.603c-.68 10.01-15.383 44.022-18.916 52.073 4.65 1.07 9.406 2.2 13.888 3.33 1.47-8.184 8.1-44.52 11.314-52.87.342-2.967 3.85-32.43 9.12-41.398-.252-1.263-.577-4.026.658-6.57-.723-.347-1.422-.674-2.077-.976-1.54 1.494-.41 3.827-.266 4.107l.56 1.057-.906.78c-7.507 6.484-12.62 29.44-13.373 40.467m-48.044 48.834l-.375-.075-.293-.246c-26.296-22.143-40.126-74.303-42.42-83.59-1.002.09-2.03.048-3.073-.117-5.934-.458-10.423-3.258-13.374-5.88-.99.934-1.566 1.945-1.71 3.018-.283 2.14 1.19 3.987 1.2 4l.42.507-.09.655c-2.758 19.997 4.732 38.834 5.566 40.847 1.608 2.04 14.62 19.486 12.443 47.27-.72 9.21.575 17.47 2.627 24.41 1.56-.343 4.27-.777 7.99-.777 6.608 0 16.394 1.385 28.49 7.1 12.193-5.665 28.248-11.02 46.397-11.863-.053-11.218-6.02-16.284-7.22-17.182-13.452-3.234-28.486-6.435-36.577-8.076m-33.476-95.6c-.224-2.285-3.6-3.682-9.267-3.835-12.792-.332-14.947 1.752-15.232 2.144l.398 1.02-.147.078c.604 1.388 2.342 3.812 5.165 5.994 1.46 1.127 3.948 2.724 6.778 3.2 1.13.078 2.317.062 3.565-.08 4.472-1.044 9.032-5.48 8.736-8.52m-30.728 11.084l.25.376c-.262-.912-.415-1.963-.27-3.103.223-1.767 1.09-3.365 2.556-4.773a27.34 27.34 0 0 1-1.1-1.302c-4.45 3.845-1.776 8.28-1.436 8.802m58.078 123.33c-16.412-7.172-28.068-5.912-32.037-5.128 3.282 9.59 7.805 16.215 9.656 18.687 5.625-4.07 13.252-9.02 22.38-13.56M351.72 283.2c.403 1.96 1.442 4.102 2.757 6.814 4.1 8.452 10.295 21.226 8.018 49.11-2.494 30.56 9.204 47.482 12.643 51.74 1.325-1.163 3.755-3.216 7.134-5.764-3.633-4.778-15.744-22.774-13.767-48.01 2.172-27.715-11.774-45.138-11.915-45.31l-.132-.162-.083-.19c-.36-.828-8.73-20.358-5.94-42.038a9.836 9.836 0 0 1-1.126-2.38l-.08.483c-1.696 10.412.766 27.344 2.49 35.707m-16.545 204.3l-3.343 3.83a83.85 83.85 0 0 1 3.08.698 17.96 17.96 0 0 0-.58-2.162l2.834-.983c2.864 8.26.955 25.536.277 30.816 1.476-.356 2.93-.6 4.266-.6 1.286 0 2.466.226 3.454.8 1.205.7 1.988 1.82 2.325 3.33.164.73.234 1.425.23 2.09 5.347-19.065 10.146-31.51 10.22-31.698l2.85.92c-.95 3.65-1.453 6.563-1.7 8.822 3.966-7.723 9.683-16.392 9.99-16.86l3.914-5.913c-19.462 8.398-34.17 7.35-37.82 6.91m-47.796 12.24c-7.213 5.923-10.806 12.28-10.68 18.9.122 6.25 3.543 11.678 6.656 15.345a15.25 15.25 0 0 1-.356-4.395c-.005-.784.076-7.47 4.113-11.424 2.05-2.007 4.728-2.956 7.947-2.832l-.05 1.222c1.62-3.79 3.978-7.12 7.828-6.89.942.055 2.668.5 3.653 2.87.172.412.313.865.424 1.356.608-4.348 2.2-6.892 6.086-6.892 1.47 0 2.992 1.035 4.07 2.77.465.747 1.02 1.91 1.395 3.593.478-.947 1.045-1.767 1.718-2.385 1.068-.98 2.35-1.433 3.738-1.308 1.347.122 2.522.806 3.414 1.972-.38-3.186-1.563-5.722-3.554-7.573-8.39-7.8-28.4-1.944-28.6-1.884l-.86-2.874c.517-.155 7.83-2.3 15.757-2.3 5.697 0 11.708 1.108 15.743 4.856 4.418 4.106 5.696 10.606 3.803 19.317.007.237.01.475.01.713 1.02-.218 2.318-.616 3.597-1.007.352-.107.71-.217 1.07-.325.274-1.98 2.094-15.79 1.103-25.314-28.156-7.317-46.83 3.75-48.024 4.49m17.234-12.896h-4.092v-2h3.822l-1.263-9.35h-4.224v-2h3.955l-1.262-9.35h-4.358v-2h4.088l-1.263-9.35h-4.492v-2h4.22l-1.26-9.348h-4.626v-2h4.356l-1.263-9.35h-4.76v-2h4.49l-1.264-9.35h-4.892v-2h4.623l-1.262-9.35h-5.026v-2h4.756c-.43-3.2-.853-6.316-1.262-9.35h-5.16v-2h4.89l-1.26-9.348h-5.296v-2h5.025l-1.264-9.35h-5.428v-2h5.158l-1.262-9.35h-5.562v-2h5.294l-1.262-9.35h-5.698v-2h5.428l-.853-6.32c-.503-.303-1.06-.406-1.72-.312-1.95.284-4.278 2.052-6.537 4.333l1.875 8.837.384 1.513-.184.03 17.267 135.936a64.08 64.08 0 0 1 8.93-2.094l-.503-3.727m-18.812-156.687c-.1-.074-.267-.197-.768-.007-4.98 1.9-11.306 6.74-11.37 6.79l-1.828-2.38a73.98 73.98 0 0 1 5.135-3.55c-.416-.822-1.18-1.993-2.14-2.26-.7-.195-1.55.128-2.53.95l-1.66 1.393-.72-2.044c-.302-.857-1.07-2.176-1.636-2.38-.044-.018-.11-.04-.296.072l-1.502 1.23-.582-1.792c-.218-.327-1.408-.874-4.25.502-4.692 2.27-16.43 11.53-21.39 16.23-.157 10.98 6.45 24.03 8.655 28.07l4.314-2.33.09.21c3.475-1.23 12.72-4.326 17.002-4.108 1.54.04 2.22-2.07 3.033-5.11.536-2 1.05-3.92 2.192-4.93l-.913-4.3-6.28 6.85-2.38-1.804c.975-1.57 9.737-15.352 16.968-16.41 1.374-.196 2.66.058 3.77.746l.823-.336c.077-3.488-.38-8.31-1.736-9.3m21.556-12.762c1.378-2.516-.383-10.2-6.28-27.41-1.73-5.057-3.2-9.31-4.44-12.894-4.1-11.868-5.708-16.518-6-19.048-.53.464-1.086.8-1.572 1.016.617 4.705 5.21 17.85 9.298 29.556 7.703 22.05 8.957 26.527 7.9 28.19-.58.91-1.458 2.29-26.222 6.157a894.88 894.88 0 0 1-9.72 1.46c.454.347.844.776 1.168 1.223 5.117-1.01 28.327-5.596 33.154-6.77 1.62-.39 2.33-.78 2.713-1.48m5.33-77.15l-.045-.004c-3.125-.22-22.182-.035-25.414 0l-6.98 4.89v-5.206c-2.483-.075-5.142.172-5.774.712-.845.725-1.048 2.18-.632 4.417 1.47.738 4.802 1.577 7.785 2.328 3.75.945 7.61 1.918 10.025 3.108 2.89-1.965 13.097-8.586 20.366-9.2.284-.364.53-.75.67-1.044m-40.463 18.604c-.055.228-5.272 22.37 2.178 32.586 5.53 1.133 10.887 2.82 15.367 5.33l-1.466 2.618c-13.085-7.332-34.872-7.317-44.52-6.894 4.378 2.677 8.13 5.445 9.985 8.373l-2.535 1.605c-2.128-3.36-7.695-6.77-13.63-10.11.425 5.187-.068 11.243-.29 13.535 4.914 3.247 14.493 10.134 19.368 17.397 20.727-2.715 43.473-6.376 46.935-8.12-.138-2.828-4.525-15.386-8.082-25.565-5.83-16.693-9.644-27.914-9.53-31.65l.037-1.227 1.207-.21c.013 0 1.25-.254 1.885-1.25.394-.62.484-1.463.304-2.488-2.195-.89-5.522-1.73-8.538-2.49-3.308-.832-6.256-1.575-8.105-2.42-1.113 1.297-2.674 3.608-2.687 5.856-.008 1.376.55 2.583 1.703 3.69l.622.597-.203.837zm-54.965 17.586c-.294-2.355.262-6.314.967-11.327 1.34-9.53 3.174-22.583-1.026-27.574a5.517 5.517 0 0 0-1.328-1.154c1.493 2.673 1.605 6.448.322 11.253-2.674 10.017-7.792 45.89-8.792 52.99 7.495.656 15.66 2.153 24.47 4.803l.747-2.45 1.643.98c.03.02.1.063.188.116.26-3.265.577-9.18-.075-13.51-8.86-4.91-16.498-9.154-17.12-14.13m-33.226-31.334c-7.064 3.378-11.395 4.482-15.216 5.454-3.77.96-7.028 1.79-12.062 4.737-3.267 1.913-4.815 4.524-4.603 7.764.28 4.25 3.494 8.14 5.676 9.06 3.367 1.42 11.72-.313 15.133-1.22 2.803-2.8 5.253-5.84 7.336-8.79-.884-1.843-1.973-6.084 1.787-12.606l2.6 1.5c-2.07 3.586-2.39 6.18-2.216 7.867 4.217-6.612 6.424-12.065 6.466-12.17l2.788 1.107c-.346.875-8.697 21.57-24.92 31.96-12.243 7.844-12.29 25.324-11.876 31.59a71.31 71.31 0 0 1 7.028-3.64c-.32-2.33-.616-7.823 2.493-13.213l.25-.43.454-.196c.13-.058 1.433-.594 3.723-.594 3.563 0 9.52 1.31 17.17 7.727a95.76 95.76 0 0 1 12.28-.784c1.972 0 4 .06 6.08.182.953-6.777 6.113-43.126 8.893-53.54 1.195-4.476 1.02-7.833-.506-9.71-1.202-1.48-2.95-1.69-3.795-1.694-7.81.117-10.545 1.698-15.76 4.716-2.324 1.345-5.216 3.02-9.204 4.927m-21.4-2.907c.362-.484.825-1.1 1.064-1.516-.51-.16-1.71-.384-4.472-.434-8.916-.186-9.812 5.77-10.024 12.957-.037 1.274-.07 2.376-.218 3.265-.346 2.06-1.34 3.186-2.218 4.18-1.274 1.44-2.48 2.803-1.774 8.152.237 1.805.94 3.027 2.146 3.735 1.808 1.06 4.54.854 6.716.393-2.384-2.273-4.442-5.92-4.688-9.68-.285-4.34 1.874-8.086 6.08-10.55a47.68 47.68 0 0 1 3.89-2.054c-.09-3.655 2.037-6.505 3.497-8.45m2.215 64.275c4.72-1.906 10.44-3.688 17.127-4.86-8.234-6.097-13.7-5.467-15.203-5.112-2.048 3.866-2.106 7.802-1.925 9.972m-7.773 33.804c2.486 6.17 3.87 9.77 3.395 12.027-.984 4.675-2.14 5.966-13.187 18.314l-3.91 4.38c-8.368 9.376-12.375 19.664-14.25 26.452a34.797 34.797 0 0 1 3.404-3.34c9.343-8.01 22.228-16.47 33.597-23.937 7.843-5.15 14.614-9.595 18.6-12.84.113-.09 2.866-2.205 7.125-5.294-19.185-1.884-21.772 8.79-21.876 9.27l-1.47-.31-1.47-.3c.113-.55 2.663-11.894 20.423-11.894 2.37 0 5.023.212 7.964.668 7.535-5.353 17.876-12.343 27.09-17.333l8.49-27.822c-48.01-14.435-76.08 6.188-79.82 9.195-.576 6.704 3.004 15.59 5.896 22.768m77.29-32.72l-8.13 26.645c5.35-2.65 10.086-4.38 13.328-4.378 1.446 0 2.596.343 3.37 1.102a274.623 274.623 0 0 1 3.112 3.082c3.118-2.5 6.472-5.037 9.352-7.007-4.14-8.064-16.548-16.56-21.03-19.442m-108.12 110.542c.544 4.204 2.54 7.017 2.714 7.255l.115.18c.058.106.96 1.715 2.997 3.278 2.578-1.013 4.267-1.482 4.267-1.482a55.487 55.487 0 0 0-1.838 2.965c.726.35 1.525.666 2.42.914 5.855 1.628 13.117-.056 21.576-5.005 6.35-3.717 14.75-9.056 23.642-14.71 22.685-14.42 50.557-32.136 65.638-36.51l-.727-1.22c-.6-1.006-14.63-24.837-8.028-39.63l2.74 1.225a16.17 16.17 0 0 0-.992 3.048c.905-.79 1.89-1.626 2.937-2.492-.52-.524-1.393-1.392-2.875-2.844-.308-.3-3.61-2.562-24.793 10.306-12.08 7.336-24.7 16.443-29.425 20.287-4.105 3.34-10.936 7.825-18.845 13.02-11.294 7.415-24.094 15.82-33.292 23.704-7.596 6.51-8.832 12.933-8.243 17.636l.1-.024-.092.102m-14.573 24.564c4.993-6.103 12.035-10.15 17.32-12.548-1.518-1.43-2.31-2.72-2.51-3.074-.337-.49-1.805-2.762-2.673-6.128-8.007 9.915-12.137 21.75-12.137 21.75m13 56a176.14 176.14 0 0 1 14.232 9.558c4.37-3.327 8.458-3.75 10.21-3.75.485 0 .755.032.755.032l.278.034.217.167c7.274 5.595 15.052 8.432 23.118 8.432a34.16 34.16 0 0 0 4.535-.314c-4.038-1.094-7.013-4.775-7.013-9.16a9.5 9.5 0 0 1 9.5-9.5c4.887 0 8.906 3.69 9.437 8.436A4.664 4.664 0 0 0 181 504.48a4.666 4.666 0 0 0 4.666 4.666c1.41 0 2.66-.638 3.516-1.628a9.533 9.533 0 0 1-1.96 2.827c3.19-1.326 5.073-2.63 5.11-2.656l1.29 1.52c-5.797 5.86-12.866 8.835-21.01 8.835-6.09 0-11.48-1.594-15.415-2.758-.714-.21-1.37-.405-1.964-.57a10.71 10.71 0 0 0-2.83-.357c-1.628 0-3.293.31-4.872.76 8.393 7.19 15.04 14.407 20.28 21.133 3.256.213 6.49.186 9.483-.215-2.537-5.99-4.63-9.7-4.63-9.7a68.646 68.646 0 0 1 9.622 8.568c.372-.126.743-.255 1.1-.4 0 0-.166.39-.585.96 25.464 27.922 22.53 69.873 22.53 69.873 14.06-11.004 20.14-27.6 22.75-38.85-4.312-.803-8.873-3.89-12.084-11.984 0 0 5.187 6.923 12.61 9.583 1.194-5.85 1.39-9.75 1.39-9.75.96 4.06 1.675 7.593 2.205 10.64 2.577.342 5.336.07 8.182-1.185 1.504-5.407 2.58-11.017 3.464-16.59-.404-.16-.79-.285-1.135-.384.3 2.88-1.207 6.31-1.415 6.766l-1.83 4.017-.08-4.413c-.09-5.004-1.206-6.95-1.434-7.3-17.547-12.908-13.343-29.152-13.298-29.316l1.146-4.186.8 4.266c3.494 18.595 13.304 24.137 14.153 24.584 1.5.438 2.737.98 3.76 1.57 1.84-12.727 3.02-24.894 6.483-33.47 5.37-13.294 4.464-25.01 3.75-29.753-2.55-8.26-13.053-32.177-50.358-39.106-33.404-6.204-57.46-.334-76.9 7.162-6.61 24.51-2.825 51.03-2.825 51.03m18.712 13.014a21.758 21.758 0 0 1 3.526-1.755c-.317-.02-.637-.03-.958-.03a16.99 16.99 0 0 0-4.152.536c.534.417 1.06.834 1.58 1.25m35.042 27.094c-1.862.802-4.36 1.386-7.702 1.352C182.796 556.86 186 569.666 186 569.666c-.86-11.684-4.374-22.827-7.58-30.892m61.966 25.016c-.027.018-3.444 2.268-7.91 2.808 1.552 9.553 1.19 13.735 1.19 13.735 2.956-5.057 5.09-10.68 6.72-16.543m13.714 57.306c.377 1.074 5.927 15.972 22.383 14.41 4.11-.39 7.396-2.067 9.767-4.983 5.394-6.633 4.672-17.732 4.53-19.396-2.276-5.427-13.266-41.235-21.577-68.62-6.455 9.447-6.17 39.786-17.66 66.922l2.557 11.665zm31.476 31.1l1.033-1.697 1.33 1.74c2.66 3.48 4.987 2.106 5.41 1.808l1.207-.904.898 1.21c3.972 5.364 8.223 2.726 8.688 2.412l2.415-1.652-.06 2.943c-.002.03-.01.805.567 1.274.674.548 2.04.62 3.846.205 3.96-.914 7.023-8.54 8.373-13.038h-7.748c.727 1.488 2.58 3.572 4.42 5.094l-1.912 2.313c-1.07-.885-6.386-5.486-5.774-9.153.55-3.29 5.68-5.12 10.21-6.737.906-.324 1.753-.625 2.463-.91.306-.122 1.24-.495 1.333-1.975.094-1.486-.732-3.14-1.505-3.57-.387-.215-.646-.227-1.407-.236-1.83-.02-4.597-.05-11.797-3.74-6.37-3.262-9.134-3.17-10.787-3.116-1.038.034-2.114.07-3.09-.908a5.422 5.422 0 0 1-.69-.87c-.75 3.347-2.08 6.843-4.416 9.716-2.897 3.568-6.873 5.616-11.818 6.087-1.87.18-3.614.166-5.244.004 10.056 13.82 13.604 13.777 14.053 13.7m39.296-15.108a4.93 4.93 0 0 1-2.814 2.804c-.74.297-1.623.612-2.57.95-1.666.595-4.485 1.602-6.36 2.658h7.59c1.433-1.206 4.004-3.9 4.155-6.412m-2.11-16.047l-1.267-9.35h-4.644v-2h4.373l-1.267-9.35h-4.773v-2h4.503c-.4-2.944-.822-6.065-1.266-9.35h-4.902v-2h4.633l-1.263-9.35h-5.034v-2h4.763l-1.264-9.35h-5.164v-2h4.894l-1.263-9.35h-5.298v-2h5.026l-.044-.323c-3.805-1.536-6.374-3.087-7.264-3.66-.916-.09-1.91-.23-2.953-.42l9.956 78.373c3.42 1.38 5.01 1.402 6.158 1.414.867.01 1.76.02 2.83.615.72.396 1.356 1.06 1.863 1.867-.277-2.036-.63-4.62-1.057-7.767h-4.517v-2h4.245zm-61.427-75.708l7.577-3.79c-2.53-8.337-4.792-15.834-6.463-21.38-.002 14.263-1.113 25.17-1.113 25.17m-11.25-170.93c.18-.3.344-.607.488-.907l-2.72 1.468c.78-.223 1.525-.412 2.232-.562m-32.7 39.02l.664 1.6-4.92 1.27c.222.522.475 1.11.755 1.753 7.323 3.627 18.548 5.88 24.38 6.875-1.885-10.634-1.725-20.413 3.56-27.1 4.518-5.716 6.617-10.882 6.07-14.938-.293-2.18-1.266-3.52-1.88-4.176-8.275 2.92-19.814 9.2-32.07 16.518.114 10.04 3.408 18.117 3.442 18.2m-11.92 4.843l-3.723.96-4.21 17.09c2.42.34 4.887.74 7.408 1.208.6.11 1.19.23 1.778.35-1.55-8.995-1.445-16.192-1.252-19.608m20.54 25.908c2.033-3.207 7.607-11.724 12.252-16.208-5.096-.842-14.85-2.73-22.55-5.83 2.862 6.27 6.77 14.18 9.125 16.638l-2.166 2.076c-4.222-4.41-11.617-21.77-12.475-23.804l-1.664.43c-.2 2.763-.534 10.915 1.362 21.103 6.092 1.46 11.436 3.375 16.117 5.594m13.508-13.214c-3.72 3.922-8.33 10.68-10.81 14.566 8.757 4.618 14.993 10.288 19.412 15.767-.963-3.722-2.2-7.81-3.483-12.045-1.81-5.97-3.694-12.197-5.12-18.287m-106.93 11.618c.568-3.348.19-6.106-.33-8.016a73.294 73.294 0 0 0-3.707 9.467 176.98 176.98 0 0 1 4.036-1.45m63.452-30.76c-1.43 6.6-3.178 18.087-1.79 20.8l-2.67 1.367c-1.9-3.715-.025-14.983 1.03-20.38l-14.62 4.08c-6.738 4.27-12.98 8.183-17.977 11.108-9.226 5.398-17.293 7.175-23.98 5.284a17.36 17.36 0 0 1-.86-.276c.527 1.94.907 4.563.587 7.705 11.826-3.826 25.33-6.653 41.357-6.653 5.5 0 11.3.34 17.426 1.077l4.72-19.162 14.756-3.807c-.948-2.743-2.705-8.71-3.03-15.962-8.108 4.9-16.43 10.16-24.25 15.13l9.828-2.744-.527 2.43zm90.563 129.51c-.516-.39-12.635-9.663-12.896-22.61-.152-7.615 3.834-14.8 11.85-21.358l.13-.095c.292-.19 2.943-1.877 7.607-3.61L276.33 360.15c-.027.09-.05.186-.075.27-.85 3.18-2.022 7.55-6.08 7.33-3.502-.166-11.926 2.54-16.04 4.004-.085 2.095-1.543 4.332-1.902 4.85l-.353.51-.608.113c-.69.127-1.433.308-2.205.518.74 1.072 1.488 2.593 1.782 4.614.72 4.977-1.524 10.805-6.674 17.322-4.732 5.988-4.642 15.504-2.734 25.743.385.056.613.087.632.09l4.487.59-3.95 2.206c-.163.09-.34.22-.516.34 1.448 6.646 3.513 13.47 5.41 19.73 2.162 7.13 4.203 13.87 5.057 19.263a55.588 55.588 0 0 1 1.905 3.434c-.16-2.083-.466-3.41-.466-3.41 5.54 11.08 7.636 27.328 8.242 42.1l.194-.057c.28.932 28.01 93.347 31.182 100.426l.095.214.026.232c.025.23.276 2.6.1 5.878l.026-.006c.318 1.58 1.13 4.172 1.955 5.002.11.038.526.025.86.014 1.816-.062 5.195-.17 12.253 3.445.382.195.746.377 1.1.55l-9.862-77.624c-4.655-1.236-9.706-3.48-13.124-7.107l-.45.596zm40.093 11.684c2.88.367 5.204-.188 6.905-1.65 3.242-2.785 3.405-8.03 3.406-8.08l.033-.28c1.1-5.245 2.156-11.54.568-13.66-.295-.395-.814-.86-2.217-.972-.02-.002-.04-.002-.06-.002-1.863 0-3.946 6.826-4.58 13.033l-.047.47-.306.356c-3.37 3.93-10.722 4.497-11.033 4.52l-8.332.594 7.604-3.456c2.01-.915 6.65-9.946 7.164-11.998.61-2.437 1.87-14.616-.768-18.33-.527-.74-1.04-.868-1.378-.9-.537-.05-.984.116-1.438.53-2.446 2.247-3.323 10.274-3.302 14.806l.002.39-6.847 12.47-2.66-1.387c9.28-18.797 6.263-26.27 5.118-28.11-.686-1.108-1.345-1.356-1.522-1.356-1.523 0-3.25 0-3.41 8.777-.17 9.236-8.89 18.353-9.262 18.737l-2.2-2.037c4.62-5.223 7.32-17.633 5.593-21.788-.41-.99-.865-1.016-1.058-1.027-3.53-.182-5.58 6.594-6.82 10.655-.346 1.133-.645 2.112-.942 2.888-1.693 4.424-5.073 6.08-5.216 6.15l-1.294-2.706c.024-.012 2.458-1.25 3.71-4.518.26-.68.544-1.61.874-2.69.386-1.268.82-2.69 1.34-4.116-2.097.033-3.77.683-5.094 1.977-3.277 3.2-3.22 9.242-3.22 9.3v.062l-.003.06c-.896 14.224 20.664 16.264 20.882 16.283l.393.035.326.224c.076.05 7.83 5.31 19.09 6.747M340 527.544c.37.496.666 1.075.89 1.75.983-.255 2.382-.79 3.184-1.884.66-.897.82-2.05.49-3.525-.2-.89-.614-1.22-.908-1.39-1.86-1.08-6.305.275-9.55 1.267-1.708.522-3.252.99-4.536 1.192-.186 3.808-.704 7.014-.865 7.66-.318 1.272-2.654 6.538-5.224 10.287 1.605-.494 3.247-1.235 4.333-2.305.478-4.282 2.315-15.657 7.806-15.215 1.974.155 3.41.863 4.38 2.164m3.316 9.258c.43 0 .878.03 1.323.084a465.55 465.55 0 0 1 2.133-8.13c-.09.145-.177.29-.28.43-1.406 1.914-3.67 2.73-5.112 3.073.06 1.312-.03 2.872-.26 4.715.63-.095 1.386-.174 2.196-.174m17.472 136.22c46.296 27.953 80.482 37.456 100.326 40.59-42.216-12.365-90.51-43.614-103.12-52.064 1.31 5.877 2.4 10.01 2.794 11.475M476.25 522.93a108.14 108.14 0 0 1 14.227 9.376c-.513-10.457-1.238-20.43-2.228-29.48-2.47 1.035-7.45 2.614-17.653 4.99 2.308 8.305 5.723 14.935 5.78 15.047l-.128.067zm-8.54 63.128l9.075 8.716a40.766 40.766 0 0 1 2.89-3.856c-1.714-1.446-6.115-4.623-11.964-4.86m-98.874 45.917c2.078-.233 6.49-1.64 10.795-8.777a217.308 217.308 0 0 0-19.085-9.69 33.798 33.798 0 0 0-.4 2.055l-.714 4.356-1.233-4.24a20.695 20.695 0 0 1-.662-3.487c-2.08-.885-3.8-1.57-5.132-2.082-.126.1-.25.203-.372.31 4.318 7.755 10.14 14.96 16.806 21.554m4.03 3.81c2.184-1.18 8.05-4.82 10.02-10.692-.514-.305-1.017-.594-1.524-.89-3.885 6.45-8.003 8.7-10.775 9.45.752.718 1.512 1.43 2.28 2.13m11.787-9.626c-2.136 5.843-7.508 9.514-10.21 11.052 23.932 21.21 55.19 35.28 66.762 40.066-16.814-23.573-38.48-40.18-56.552-51.12m-4.648-104.948c-2.082 1.234-3.724 1.813-4.35 2.007-5.618 2.88-10.585 6.66-14.736 11.18l-.106.552-.337-.064a51.528 51.528 0 0 0-9.417 15.168c-4.345 10.806-4.18 20.582-2.186 25.093 4.213 9.535 3.95 13.09 3.586 14.235-.873 5.292-1.266 10.98-1.31 16.814.318.033.684.072 1.072.115 1.498-1.54 4.06-3.168 8.432-3.786.706-.25 7.013-2.685 12.987-11.564-1.5 1.94-3.673 3.166-6.095 3.166-4.532 0-8.206-4.27-8.206-9.54 0-5.268 3.673-9.54 8.205-9.54 3.537 0 6.542 2.606 7.695 6.252-.785-.9-1.926-1.484-3.215-1.484a4.275 4.275 0 0 0 0 8.55 4.27 4.27 0 0 0 3.568-1.927 10.4 10.4 0 0 1-1.06 3.138c1.918-3.086 3.772-6.863 5.356-11.493l1.403-4.107.533 4.306c.023.183 2.01 18.33-18.897 29.52 10.745 1.78 26.497 5.18 42.644 11.462 30.375 11.814 51.22 29.507 61.276 51.764-.885-8.375-1.59-18.747-1.35-29.4.416-18.373 3.55-32.956 9.21-43.383l-1.192-.97c-3.613-2.945-9.658-7.873-14.1-7.873h-.115c-.728.015-1.536.046-2.414.08a134.2 134.2 0 0 1-5.274.126c-10.365 0-25.215-1.827-34.467-17.618l1.625-1.152c.11.13 11.288 13.05 30.083 13.05 6.19 0 12.587-1.403 19.014-4.167l.255-.11.275.038c.316.043 7.48 1.124 12.86 9.516 3.016-3.114 6.446-5.512 10.284-7.154 0-15.25-.244-30.895-.89-45.713-36.322-29.622-80.885-27.26-110.656-15.085m53.365-30.524c-10.78 8.4-20.372 15.91-25.737 20.118a119.45 119.45 0 0 1 16.093-1.103c15.77 0 32.395 3.185 48.33 11.043-2.826-6.367-8.054-20.176-6.116-31.604l2.956.5c-.65 3.84-.393 8.04.322 12.127 3.472-2.94 5.477-7.287 6.528-12.146-6.965-12.964-39.7-.024-42.377 1.063m40.963-31.61c-9.314 7.06-21.65 16.59-33.432 25.75 6.015-1.875 14.153-3.88 21.465-3.88 5.627 0 10.754 1.198 14.047 4.547 1.16-10.35-1.02-21.745-2.08-26.416m-4.22 45.774l-.388-.53c.043.196.084.394.13.59l.256-.06m89.53 131.62c-5.745-11.392-21.945-16.392-27.5-17.802.245 2.705.454 5.443.638 8.2 3.186.216 17.276 1.913 27.582 14.947a211.438 211.438 0 0 0-.72-5.345m-26.447 27.615a297.4 297.4 0 0 1-1.07 14.81c3.26-4.182 8.68-9.622 15.61-11.01 1.106-.22 2.21-.332 3.312-.332 3.507 0 6.984 1.14 10.393 3.37.08-1.34.14-2.682.18-4.03-11.185-13.05-26.282-4.173-28.425-2.806m.142-3.514c2.75-1.432 7.952-3.643 13.853-3.643 4.69 0 9.814 1.41 14.493 5.706.004-4.838-.23-9.7-.66-14.57-9.13-15.325-24.218-17.784-28.044-18.163.577 9.95.73 20.212.357 30.67m24.118-36.58c-8.997-11.432-21.74-15.75-26.564-17.034.346 2.813.662 5.66.947 8.54 3.98.905 18.293 4.708 26.68 14.098-.333-1.87-.685-3.74-1.062-5.604m1.67 76.077c1.67.474 4.843.887 8.005-1.356 3.947-2.794 9.365-11.056 9.562-35.27-1.78 14.97-6.106 29.72-16.12 31.8-.44 1.62-.928 3.227-1.447 4.828M345.4 678.13c15.292 39.866 45.497 57.78 68.142 65.79 29.095 10.287 58.267 8.924 74.406 4.63l.2-.053.208.003h.067c2.035 0 46.796-.524 64.206-39.775 4.87-10.984 7.523-22.522 8.55-34.314-4.25-3.215-8.567-4.437-12.847-3.586-9.355 1.866-15.996 12.857-16.896 14.416-1.178 9.796-2.886 19.69-5.228 29.604l-2.92-.69c14.5-61.376 4.574-122.144-6.305-162.314-7.286-26.9-15.815-48.184-21.55-61.05 1.963 10.072 3.685 21.414 3.798 22.152l-2.955.517c-1.233-6.2-3.82-14-6.268-20.65 8.818 61.483 2.06 181.707 1.985 183.025l-2.994-.172c.04-.703 1.98-35.255 2.447-76.598-16.524 11.366-13.32 69.3-13.286 69.898l-2.993.177c-.153-2.595-3.52-63.686 16.316-73.582.03-3.38.05-6.8.06-10.245-3.342 1.61-6.23 3.815-8.716 6.496l3.068 5.403-4.11-4.223c-21.15 25.104-11.09 86.388-9.51 95.17.068.36.134.716.2 1.076l-2.95.556c-.005-.03-.083-.433-.216-1.164-7.16-36.91-39.09-56.553-64.76-66.548-16.487-6.42-32.55-9.79-43.15-11.493l-.01.02c19.18 8.513 58.94 29.812 85.105 69.06l2.55 3.826-4.315-1.585c-2.855-1.05-67.72-25.27-93.397-66.733.73 15.424 3.4 30.956 5.74 42.128 6.557 4.503 75.68 51.29 124.302 57.682l12.235 1.608-12.263 1.37c-1.774.2-43.63 4.252-119.152-40.597 1.366 3.725 3.94 9.877 8.155 16.896 3.384 2.797 49.635 39.54 123.137 26.594l.52 2.954c-40.42 7.12-72.447-.698-92.195-8.51-12.085-4.78-21.075-10.054-26.707-13.822a96.953 96.953 0 0 0 7.744 9.45c15.177 16.272 43.157 34.21 90.262 27.254l.438 2.968c-48.386 7.143-77.227-11.378-92.896-28.176-16.962-18.186-22.382-37.76-22.6-38.567-.144-.51-14.276-51.22-8.536-85.654l-.086-.13.18-.237c.08-.514.277-3.514-3.486-12.03-2.314-5.238-2.548-15.75 2.147-27.425a54.553 54.553 0 0 1 9.858-15.926c.95-4.86 4.318-21.698 8.01-36.11-2.69 4.533-5.655 9.91-7.067 13.763l-1.558 4.258-1.288-4.348c-.022-.07-.2-.703-.292-2-10.37 32.082-32.234 112.998-10.537 169.563m245.89-146.364c-.144.243-14.375 24.893-10.128 79.784 2.214 28.608 5.89 43.135 8.32 52.748 2.392 9.458 3.837 15.166 1.995 25.466-2.553 14.275-10.012 26.357-19.95 32.32-7.416 4.45-16.097 5.36-25.164 2.68-20.84 25.807-54.776 26.71-57.83 26.735-17.37 4.572-46.386 5.714-75.99-4.754-23.24-8.22-54.24-26.61-69.94-67.544-14.593-38.043-9.634-86.5-2.904-120.453a429.68 429.68 0 0 1 4.208-18.92c-1.215-.08-2.508.114-3.26.282-.184 1.052-.4 2.172-.65 3.38-.048 1.028-.484 6.725-4.43 10.13-2.373 2.05-5.484 2.845-9.255 2.364a51.303 51.303 0 0 1-9.623-2.2c7.083 52.393 10.93 80.783 11.13 82.115.68 4.546-3.813 8.743-5.235 9.945-.76 2.93-4.293 15.07-10.996 16.615-2.85.66-5.024.372-6.472-.847a4.396 4.396 0 0 1-1.124-1.44c-2.65.946-6.627.953-10.13-3.022-1.87.723-4.73.767-7.436-2.07-.257.073-.548.12-.877.13-3.92.11-10.076-5.792-18.29-17.536-11.913-3.51-15.983-15.56-16.03-15.71l-1.75-7.97c-2.89 5.99-6.42 11.75-10.81 17.007C196.74 681.207 140 666.667 140 666.667c-50 9-114.4-40.2-118.333-102.333C20 538 28.57 501.983 47.667 479c32.37-38.956 27.667-56.334 27.667-56.334 6.667 12.667 4.333 20 4.333 20 13.246-14.058 35.7-21.537 43.713-23.862-.44-2.932-.303-6.442 1.21-10.212.223-2.1 2.473-19.825 16.54-35.59l3.916-4.38c10.845-12.122 11.687-13.132 12.486-16.93.31-1.475-1.495-5.957-3.242-10.29-3.105-7.71-6.97-17.302-6.028-24.84l.07-.554.416-.375c.056-.05 1.177-1.03 3.315-2.47-.516-4.77-1.925-26.283 13.128-35.926a41.673 41.673 0 0 0 3.18-2.265c-3.642.636-8.165 1.075-11.116.123-1.808.63-7.656 2.363-11.63.035-2.034-1.19-3.248-3.187-3.61-5.935-.882-6.703.994-8.825 2.5-10.53.758-.858 1.305-1.476 1.508-2.69.116-.686.146-1.692.18-2.856.163-5.568.467-15.875 12.667-15.875.135 0 .27.002.41.004 4.697.085 6.615.634 7.33 2.096.753 1.544-.328 2.985-1.58 4.654-1.123 1.497-2.447 3.277-2.805 5.362 2.022-.735 3.872-1.207 5.856-1.712 3.688-.94 7.867-2.003 14.66-5.254 3.884-1.856 6.6-3.43 9-4.816 5.425-3.14 8.52-4.926 16.775-5.11.16-.01.32-.012.478-.012.037 0 .074.004.11.005.29-.003.565-.01.866-.01.88 0 1.815.015 2.812.048 2.802.09 5.063 1.136 6.72 3.105 5.06 6.016 3.197 19.272 1.7 29.923-.648 4.602-1.206 8.577-.962 10.536.435 3.477 8.525 7.96 15.664 11.914 1.07.593 2.144 1.19 3.21 1.788 1.45-.125 5.875-.46 11.758-.46 5.645 0 12.623.31 19.583 1.408-5.42-10.692-2.184-27.795-1.325-31.76-1.355-1.54-2.035-3.3-2.024-5.242.02-3.662 2.572-6.875 3.767-8.182-.34-1.812-.676-5.17 1.654-7.167 1.4-1.2 4.435-1.454 6.763-1.454 1.1 0 2.042.055 2.578.097l1.385.107v2.257l3.02-2.115.464-.004c.92-.01 22.598-.243 26.122.005 1.79.126 2.497.992 2.774 1.697.73 1.846-1.004 3.99-1.782 4.825l-.426.457-.625.02c-5.854.182-14.884 5.714-18.547 8.12.668.76.976 1.562.91 2.396-.096 1.188-.92 1.975-1.564 2.415-.055 1.76 1.55 6.4 5.88 18.933 1.24 3.587 2.71 7.84 4.442 12.9 6.527 19.052 8 26.3 6.07 29.824-1.016 1.855-2.83 2.517-4.636 2.957-3.81.923-18.37 3.84-27.26 5.604a9.144 9.144 0 0 1 1.463 2.07c1.454-.816 2.97-1.573 4.41-2.122a4.26 4.26 0 0 1 1.525-.3c.903 0 1.6.336 2.078.687 3.32 2.423 3.022 11.11 2.928 12.83l-.05.947-2.305.938c1.3 9.64 10.65 78.892 19.947 147.712a70.555 70.555 0 0 1 8.105-.464c3.772 0 7.853.304 12.202 1.008l5.607-6.422.828.14c.168.03 15.5 2.478 36.43-6.36 1.48-3.882 10.15-26.018 24.16-50.414-1.635-1.017-3.257-2.84-2.644-5.45.026-1.825-6.21-10.33-10.34-15.96-3.216-4.387-6.537-8.918-8.627-12.313-1.66-1.752-17.23-19.24-14.307-55.05 2.21-27.066-3.77-39.396-7.727-47.554-1.35-2.786-2.52-5.192-2.998-7.52-.478-2.328-4.57-22.87-2.596-36.24-1.69-2.99-2.783-8.966 3.734-13.31l1.274-.846.085.132.99-.513c.083-.36.243-.74.507-1.114 1.63-2.318 6.512-3.452 14.895-3.452.915 0 1.872.013 2.87.04 9.557.258 11.894 3.7 12.17 6.543.446 4.565-4.64 9.54-9.663 11.317 2.27 9.005 16.09 60.323 41.13 81.71 2.305.47 13.066 2.68 25.173 5.424 2.973-6.772 18.248-41.97 18.904-51.596.736-10.8 5.455-33.58 13.6-41.78-.66-1.956-.812-4.87 1.597-6.857-.518-.86-.868-1.927-.483-3.026.81-2.314 4.076-2.67 6.46-2.734 3.006-.083 8.004-.11 13.33-.11 10.554 0 22.396.108 22.573.11l1.455.013.03 1.454c.003.103.064 10.305-12.99 10.95-7.95.392-10.272 2.46-10.898 3.31.648 1.62.692 4.367-2.334 7.058-2.4 4.945.388 70.962 3.294 101.118 1.32-.51 2.56-.727 3.69-.727 2.362 0 4.25.91 5.458 1.868a6.29 6.29 0 0 1 2.1-.375c1.754 0 3.782.766 5.425 3.252 2.358 3.57 6.372 12.447 4.964 16.8-.486 1.5-1.474 2.15-2.216 2.43-1.07.405-2.2.35-3.272-.156-1.587-.75-2.876-2.45-3.82-4.104a302.492 302.492 0 0 1-1.686 5.897c1.415 1.335 2.554 4.37 3.398 9.087 6.455 4.473 32.072 22.73 32.072 30.61 0 7.29-11.595 23.356-14.875 27.755 2.288 2.967 2.43 4.578 2.366 5.17l-.043.42-.258.334c-.287.372-.667.84-1.12 1.4-3.36 4.15-11.232 13.868-13.6 25.567-2.336 11.542-8.736 18.207-11.108 20.344 4.14 9.88 9.732 24.404 15.05 41.99 4.562 1.697 28.112 11.718 32.687 39.188.394 2.37.605 4.487.64 6.373l.36-.11a579.998 579.998 0 0 1 2.993 9.903c-.2-13.833-1.397-37.815-6.97-51.52a106.372 106.372 0 0 0-1.62-3.456l2.655-1.394a36.315 36.315 0 0 1 1.723 3.667c3.15 6.975 9.95 23.324 14.294 43.05.73-17.222 3.913-41.143 14.11-65.354l3.676-8.72-2.412 28.524c2.19-3.262 5.59-6.86 10.78-9.456l4.575-2.286-2.614 4.394z"/><path d="M472.017 449.028c.013-.085 1.19-8.575-4.174-15.436-3.922-5.016-10.35-7.994-19.103-8.85-26.148-2.55-29.255 6.573-29.276 6.636l-2.902-.757c.11-.424 2.7-9.323 23.634-9.322 2.64 0 5.577.14 8.835.46 9.626.94 16.76 4.312 21.204 10.02 6.15 7.9 4.81 17.3 4.75 17.697l-2.966-.446zM442.67 622.965c4.75 0 9.13-1.707 12.5-3.57a38.317 38.317 0 0 1-10.456 1.452c-6.348 0-11.672-1.542-15.342-3.037 4.042 3.425 8.497 5.155 13.297 5.155m2.043-4.118c5.963 0 11.792-1.458 17.325-4.333l6.106-3.173-4.952 4.78c-.374.363-9.29 8.846-20.525 8.846-7.114 0-13.488-3.403-18.946-10.116l-4.266-5.25 5.604 3.79c.08.054 8.203 5.457 19.654 5.457"/></g></svg>