<?xml version="1.0" standalone="no"?>
<!DOCTYPE svg PUBLIC "-//W3C//DTD SVG 20010904//EN"
 "http://www.w3.org/TR/2001/REC-SVG-20010904/DTD/svg10.dtd">
<svg version="1.0" xmlns="http://www.w3.org/2000/svg"
 width="196.000000pt" height="196.000000pt" viewBox="0 0 196.000000 196.000000"
 preserveAspectRatio="xMidYMid meet">
<metadata>
Created by potrace 1.11, written by Peter Selinger 2001-2013
</metadata>
<g transform="translate(0.000000,196.000000) scale(0.100000,-0.100000)"
fill="#000000" stroke="none">
<path d="M1290 1841 c-76 -24 -143 -60 -220 -117 -120 -88 -182 -169 -205
-267 l-11 -48 -32 46 c-39 55 -90 92 -229 167 -114 60 -139 83 -149 137 l-7
35 -19 -23 c-43 -54 -68 -253 -46 -370 14 -75 16 -86 19 -88 1 -2 2 -6 3 -10
14 -64 62 -148 105 -187 11 -11 21 -22 21 -25 0 -3 -23 -7 -50 -8 -57 -3 -119
-31 -254 -117 -100 -62 -129 -72 -181 -57 -34 9 -36 9 -30 -12 10 -36 119
-133 197 -176 144 -80 296 -113 401 -86 43 11 47 11 41 -4 -29 -67 -36 -125
-35 -274 2 -166 -2 -185 -47 -225 -16 -14 -20 -22 -11 -23 8 0 22 -2 31 -4 26
-5 125 23 182 52 167 84 304 230 331 351 l7 33 28 -39 c38 -52 89 -91 199
-151 52 -28 96 -51 98 -51 3 0 16 -9 30 -20 30 -23 53 -64 53 -91 0 -61 53 32
69 121 12 66 7 224 -9 300 -17 79 -74 192 -114 227 l-34 30 59 6 c55 5 189 60
222 91 7 6 40 28 73 48 65 40 113 51 153 36 35 -13 37 -3 7 42 -76 115 -307
232 -480 244 -45 3 -125 -12 -143 -26 -9 -7 -13 -7 -13 0 0 6 4 13 9 16 4 3
16 33 25 67 14 47 17 94 15 207 -2 187 -4 176 31 216 25 28 28 35 14 40 -24 9
-44 7 -104 -13z m25 -71 c-9 -27 -13 -72 -10 -142 2 -57 -1 -127 -6 -157 -21
-108 -98 -240 -167 -283 -34 -21 -107 -28 -149 -14 -39 12 -25 -1 24 -24 77
-36 118 -30 230 35 160 92 226 106 346 73 92 -25 229 -94 269 -135 25 -26 28
-33 15 -34 -9 -1 -21 -3 -27 -4 -5 -1 -16 -3 -24 -4 -8 0 -38 -17 -67 -37
-132 -90 -235 -124 -362 -119 -91 3 -156 25 -194 66 -27 30 -55 94 -45 104 4
5 2 5 -5 2 -15 -9 -8 -88 12 -127 18 -34 73 -77 158 -122 135 -72 197 -162
222 -318 9 -58 10 -192 1 -234 l-8 -40 -25 33 c-14 18 -59 49 -103 71 -77 39
-170 107 -217 159 -13 14 -39 58 -59 98 -52 108 -48 197 12 258 28 28 7 28
-30 0 -64 -49 -69 -64 -77 -235 -7 -180 -18 -214 -93 -297 -54 -60 -191 -155
-256 -178 -50 -18 -56 -15 -40 15 7 14 13 79 14 164 2 77 5 152 9 165 24 89
46 134 100 204 52 67 131 92 215 68 48 -14 39 -5 -24 25 -68 32 -129 30 -189
-8 -141 -88 -218 -117 -301 -113 -102 5 -285 82 -359 151 l-30 28 44 8 c26 4
68 24 100 46 117 81 245 124 351 117 132 -8 196 -47 226 -137 8 -26 17 -48 19
-48 9 0 -7 116 -19 139 -19 36 -37 50 -148 115 -165 96 -213 170 -236 361 -10
84 -1 225 14 225 2 0 18 -15 34 -34 17 -19 49 -42 73 -51 66 -26 171 -101 221
-156 50 -55 100 -151 111 -212 11 -57 -2 -99 -43 -147 l-37 -44 32 19 c95 56
106 81 109 232 4 207 15 237 123 343 75 74 214 164 259 167 20 2 20 0 7 -37z"/>
<path d="M1142 1584 c-23 -25 -43 -84 -48 -142 -6 -73 -34 -130 -91 -186 -36
-36 -41 -44 -21 -39 54 14 103 52 126 96 19 36 24 64 27 140 1 52 8 104 15
116 14 27 10 34 -8 15z"/>
<path d="M517 1439 c6 -21 40 -57 145 -154 28 -26 48 -56 57 -85 8 -25 18 -49
22 -54 4 -5 5 -14 3 -21 -3 -7 -1 -16 5 -20 7 -4 11 5 12 24 1 17 2 41 2 54 3
70 -46 138 -132 182 -25 13 -63 40 -83 60 -31 31 -36 33 -31 14z"/>
<path d="M1505 1120 c-16 -4 -52 -18 -80 -31 -58 -27 -133 -28 -209 -5 l-50
15 25 -22 c44 -41 105 -65 151 -60 42 5 57 12 162 67 27 14 63 26 79 26 17 0
28 2 25 5 -9 10 -72 13 -103 5z"/>
<path d="M567 898 c-15 -5 -53 -25 -84 -44 -35 -21 -71 -34 -92 -35 -34 0 -35
-1 -11 -10 34 -14 84 -5 153 27 35 15 76 26 100 26 52 -1 117 -12 139 -23 37
-19 7 16 -36 44 -46 29 -114 35 -169 15z"/>
<path d="M1177 819 c-12 -42 -7 -110 8 -144 21 -43 59 -77 122 -110 29 -15 67
-43 84 -63 27 -30 30 -32 24 -11 -13 40 -40 72 -97 113 -68 49 -97 92 -118
175 -14 52 -18 59 -23 40z"/>
<path d="M922 690 c-82 -41 -102 -82 -107 -214 -2 -51 -8 -103 -14 -114 -17
-31 -13 -38 8 -16 23 26 40 76 47 145 8 76 25 111 85 174 29 30 50 55 47 55
-3 0 -32 -14 -66 -30z"/>
</g>
</svg>
