<svg version="1" xmlns="http://www.w3.org/2000/svg" width="261.333" height="261.333" viewBox="0 0 196.000000 196.000000"><path d="M129 11.9c-7.6 2.4-14.3 6-22 11.7-12 8.8-18.2 16.9-20.5 26.7l-1.1 4.8-3.2-4.6c-3.9-5.5-9-9.2-22.9-16.7-11.4-6-13.9-8.3-14.9-13.7l-.7-3.5-1.9 2.3c-4.3 5.4-6.8 25.3-4.6 37 1.4 7.5 1.6 8.6 1.9 8.8.1.2.2.6.3 1 1.4 6.4 6.2 14.8 10.5 18.7 1.1 1.1 2.1 2.2 2.1 2.5 0 .3-2.3.7-5 .8-5.7.3-11.9 3.1-25.4 11.7-10 6.2-12.9 7.2-18.1 5.7-3.4-.9-3.6-.9-3 1.2 1 3.6 11.9 13.3 19.7 17.6 14.4 8 29.6 11.3 40.1 8.6 4.3-1.1 4.7-1.1 4.1.4-2.9 6.7-3.6 12.5-3.5 27.4.2 16.6-.2 18.5-4.7 22.5-1.6 1.4-2 2.2-1.1 2.3.8 0 2.2.2 3.1.4 2.6.5 12.5-2.3 18.2-5.2 16.7-8.4 30.4-23 33.1-35.1l.7-3.3 2.8 3.9c3.8 5.2 8.9 9.1 19.9 15.1 5.2 2.8 9.6 5.1 9.8 5.1.3 0 1.6.9 3 2 3 2.3 5.3 6.4 5.3 9.1 0 6.1 5.3-3.2 6.9-12.1 1.2-6.6.7-22.4-.9-30-1.7-7.9-7.4-19.2-11.4-22.7l-3.4-3 5.9-.6c5.5-.5 18.9-6 22.2-9.1.7-.6 4-2.8 7.3-4.8 6.5-4 11.3-5.1 15.3-3.6 3.5 1.3 3.7.3.7-4.2-7.6-11.5-30.7-23.2-48-24.4-4.5-.3-12.5 1.2-14.3 2.6-.9.7-1.3.7-1.3 0 0-.6.4-1.3.9-1.6.4-.3 1.6-3.3 2.5-6.7 1.4-4.7 1.7-9.4 1.5-20.7-.2-18.7-.4-17.6 3.1-21.6 2.5-2.8 2.8-3.5 1.4-4-2.4-.9-4.4-.7-10.4 1.3zm2.5 7.1c-.9 2.7-1.3 7.2-1 14.2.2 5.7-.1 12.7-.6 15.7-2.1 10.8-9.8 24-16.7 28.3-3.4 2.1-10.7 2.8-14.9 1.4-3.9-1.2-2.5.1 2.4 2.4 7.7 3.6 11.8 3 23-3.5 16-9.2 22.6-10.6 34.6-7.3 9.2 2.5 22.9 9.4 26.9 13.5 2.5 2.6 2.8 3.3 1.5 3.4-.9.1-2.1.3-2.7.4-.5.1-1.6.3-2.4.4-.8 0-3.8 1.7-6.7 3.7-13.2 9-23.5 12.4-36.2 11.9-9.1-.3-15.6-2.5-19.4-6.6-2.7-3-5.5-9.4-4.5-10.4.4-.5.2-.5-.5-.2-1.5.9-.8 8.8 1.2 12.7 1.8 3.4 7.3 7.7 15.8 12.2 13.5 7.2 19.7 16.2 22.2 31.8.9 5.8 1 19.2.1 23.4l-.8 4-2.5-3.3c-1.4-1.8-5.9-4.9-10.3-7.1-7.7-3.9-17-10.7-21.7-15.9-1.3-1.4-3.9-5.8-5.9-9.8-5.2-10.8-4.8-19.7 1.2-25.8 2.8-2.8.7-2.8-3 0-6.4 4.9-6.9 6.4-7.7 23.5-.7 18-1.8 21.4-9.3 29.7-5.4 6-19.1 15.5-25.6 17.8-5 1.8-5.6 1.5-4-1.5.7-1.4 1.3-7.9 1.4-16.4.2-7.7.5-15.2.9-16.5 2.4-8.9 4.6-13.4 10-20.4 5.2-6.7 13.1-9.2 21.5-6.8 4.8 1.4 3.9.5-2.4-2.5-6.8-3.2-12.9-3-18.9.8-14.1 8.8-21.8 11.7-30.1 11.3-10.2-.5-28.5-8.2-35.9-15.1l-3-2.8 4.4-.8c2.6-.4 6.8-2.4 10-4.6C33.6 96.1 46.4 91.8 57 92.5c13.2.8 19.6 4.7 22.6 13.7.8 2.6 1.7 4.8 1.9 4.8.9 0-.7-11.6-1.9-13.9-1.9-3.6-3.7-5-14.8-11.5-16.5-9.6-21.3-17-23.6-36.1-1-8.4-.1-22.5 1.4-22.5.2 0 1.8 1.5 3.4 3.4 1.7 1.9 4.9 4.2 7.3 5.1 6.6 2.6 17.1 10.1 22.1 15.6s10 15.1 11.1 21.2c1.1 5.7-.2 9.9-4.3 14.7l-3.7 4.4 3.2-1.9c9.5-5.6 10.6-8.1 10.9-23.2.4-20.7 1.5-23.7 12.3-34.3 7.5-7.4 21.4-16.4 25.9-16.7 2-.2 2 0 .7 3.7z"/><path d="M114.2 37.6c-2.3 2.5-4.3 8.4-4.8 14.2-.6 7.3-3.4 13-9.1 18.6-3.6 3.6-4.1 4.4-2.1 3.9 5.4-1.4 10.3-5.2 12.6-9.6 1.9-3.6 2.4-6.4 2.7-14 .1-5.2.8-10.4 1.5-11.6 1.4-2.7 1-3.4-.8-1.5zM51.7 52.1c.6 2.1 4 5.7 14.5 15.4 2.8 2.6 4.8 5.6 5.7 8.5.8 2.5 1.8 4.9 2.2 5.4.4.5.5 1.4.3 2.1-.3.7-.1 1.6.5 2 .7.4 1.1-.5 1.2-2.4.1-1.7.2-4.1.2-5.4.3-7-4.6-13.8-13.2-18.2-2.5-1.3-6.3-4-8.3-6-3.1-3.1-3.6-3.3-3.1-1.4zM150.5 84c-1.6.4-5.2 1.8-8 3.1-5.8 2.7-13.3 2.8-20.9.5l-5-1.5 2.5 2.2c4.4 4.1 10.5 6.5 15.1 6 4.2-.5 5.7-1.2 16.2-6.7 2.7-1.4 6.3-2.6 7.9-2.6 1.7 0 2.8-.2 2.5-.5-.9-1-7.2-1.3-10.3-.5zm-93.8 22.2c-1.5.5-5.3 2.5-8.4 4.4-3.5 2.1-7.1 3.4-9.2 3.5-3.4 0-3.5.1-1.1 1 3.4 1.4 8.4.5 15.3-2.7 3.5-1.5 7.6-2.6 10-2.6 5.2.1 11.7 1.2 13.9 2.3 3.7 1.9.7-1.6-3.6-4.4-4.6-2.9-11.4-3.5-16.9-1.5zm61 7.9c-1.2 4.2-.7 11 .8 14.4 2.1 4.3 5.9 7.7 12.2 11 2.9 1.5 6.7 4.3 8.4 6.3 2.7 3 3 3.2 2.4 1.1-1.3-4-4-7.2-9.7-11.3-6.8-4.9-9.7-9.2-11.8-17.5-1.4-5.2-1.8-5.9-2.3-4zM92.2 127c-8.2 4.1-10.2 8.2-10.7 21.4-.2 5.1-.8 10.3-1.4 11.4-1.7 3.1-1.3 3.8.8 1.6 2.3-2.6 4-7.6 4.7-14.5.8-7.6 2.5-11.1 8.5-17.4 2.9-3 5-5.5 4.7-5.5-.3 0-3.2 1.4-6.6 3z"/></svg>